<?xml version="1.0" encoding="UTF-8"?>
<svg width="45px" height="44px" viewBox="0 0 45 44" version="1.1" xmlns="http://www.w3.org/2000/svg" xmlns:xlink="http://www.w3.org/1999/xlink">
    <!-- Generator: Sketch 49.1 (51147) - http://www.bohemiancoding.com/sketch -->
    <title>icEmail60</title>
    <desc>Created with Sketch.</desc>
    <defs>
        <linearGradient x1="100%" y1="100%" x2="0%" y2="0%" id="linearGradient-1">
            <stop stop-color="#009CDE" offset="0%"></stop>
            <stop stop-color="#00CF92" offset="100%"></stop>
        </linearGradient>
    </defs>
    <g id="VsD-v3" stroke="none" stroke-width="1" fill="none" fill-rule="evenodd">
        <g id="2.1.0-d---Email-Landing" transform="translate(-490.000000, -295.000000)">
            <g id="Email" transform="translate(342.000000, 288.000000)">
                <g id="icEmail60" transform="translate(140.000000, 0.000000)">
                    <rect id="Specs" x="0" y="0" width="60" height="60"></rect>
                    <g id="icon-mail-copy" transform="translate(8.000000, 7.000000)" fill="url(#linearGradient-1)" fill-rule="nonzero">
                        <path d="M41.798004,14.8757198 L26.381066,2.49617054 L26.0378995,2.92330333 L26.3865421,2.50073393 C25.4163666,1.7003163 24.6369405,1.09247349 23.9268779,0.668078739 C23.2195533,0.246422016 22.5569499,-7.43215596e-07 21.8678788,-7.43215596e-07 C21.1578162,-0.000913420103 20.4869987,0.2628502 19.7833248,0.705498491 C19.0760002,1.14905946 18.3075263,1.78154454 17.3464775,2.60660445 L0.192715427,17.236815 C-0.037279149,17.4330405 -0.0646594556,17.778945 0.131566075,18.0098523 C0.327791606,18.2398469 0.673696147,18.2672272 0.903690722,18.0710016 L18.0583655,3.43896577 C19.0093748,2.6202946 19.7532065,2.01518982 20.3647,1.63277821 C20.9807569,1.24854124 21.4361827,1.09521152 21.8678788,1.09521152 C22.2877102,1.09521152 22.7476994,1.24123982 23.3664943,1.60813593 C23.9825512,1.97503204 24.7336843,2.55549454 25.689257,3.34587273 L25.694733,3.35043611 L41.111671,15.7290727 C41.3471416,15.9179969 41.6921335,15.8805771 41.8810576,15.6451065 C42.0718071,15.4096358 42.0343873,15.064644 41.798004,14.8757198 Z M3.49204238,20.934069 L18.0866585,32.6017304 L18.4289123,32.1736849 L18.0802697,32.5953416 C19.0495326,33.3957593 19.8289587,34.0036021 20.539934,34.4279968 C21.2472585,34.8496535 21.909862,35.0960763 22.598933,35.0960763 C23.3089956,35.0960763 23.9798132,34.8332254 24.683487,34.3914897 C25.3908116,33.9470161 26.1592856,33.3154437 27.121247,32.4903838 L26.7643903,32.0751158 L27.1112076,32.4985979 L44.6665475,18.1056834 C44.8454322,17.9587424 44.9129702,17.7159703 44.83448,17.4978405 C44.7569025,17.2797108 44.5506375,17.1345951 44.3188176,17.1345951 L0.627149625,17.1345951 C0.482946677,17.1345951 0.342394436,17.1930065 0.240174625,17.2952263 C0.137954813,17.3965334 0.0795434926,17.5379983 0.0795434926,17.6822013 L0.0795434926,42.7306185 C0.0795434926,42.8748214 0.137954813,43.0153737 0.240174625,43.1185061 C0.342394436,43.2198133 0.482946677,43.2782246 0.627149625,43.2782246 L44.4529811,43.2782246 C44.5990094,43.2782246 44.7368236,43.2216386 44.8399561,43.1175935 C44.9430886,43.014461 45.0005872,42.8766468 45.0005872,42.7306185 L45.0005872,17.6822013 C45.0005872,17.3801052 44.7550771,17.1345951 44.4529811,17.1345951 C44.1499724,17.1345951 43.905375,17.3801052 43.905375,17.6822013 L43.905375,42.183925 L1.17475576,42.183925 L1.17475576,18.2298074 L42.7882585,18.2298074 L26.4175731,31.6516337 L26.4084463,31.6598478 C25.457437,32.4766936 24.7136054,33.0817984 24.1021119,33.46421 C23.4869676,33.848447 23.0306292,34.0017767 22.5998457,34.0017767 C22.180927,34.0017767 21.7209379,33.8557484 21.1012302,33.4879396 C20.4851733,33.1219562 19.7340403,32.5414937 18.7784676,31.7520282 L18.7711662,31.7465521 L4.17655004,20.0779781 C3.94016673,19.889054 3.59608754,19.9273864 3.40716343,20.1637697 C3.21732663,20.4001531 3.25565906,20.7451449 3.49204238,20.934069 Z" id="Shape"></path>
                    </g>
                </g>
            </g>
        </g>
    </g>
</svg>