<?xml version="1.0" encoding="UTF-8"?>
<svg width="243px" height="72px" viewBox="0 0 243 72" version="1.1" xmlns="http://www.w3.org/2000/svg" xmlns:xlink="http://www.w3.org/1999/xlink">
    <!-- Generator: Sketch 46.2 (44496) - http://www.bohemiancoding.com/sketch -->
    <title>icon-cross_device-d</title>
    <desc>Created with Sketch.</desc>
    <defs></defs>
    <g id="B---Desktop" stroke="none" stroke-width="1" fill="none" fill-rule="evenodd">
        <g id="B---1.1.0-d---Activation-IS" transform="translate(-528.000000, -412.000000)">
            <g id="Group-2" transform="translate(423.000000, 271.000000)">
                <g id="Group" transform="translate(43.000000, 142.000000)">
                    <g id="icon-cross_device-d" transform="translate(63.000000, 0.000000)">
                        <path d="M27.9506657,55.8049128 L2.86893939,55.8049128 C1.33748852,55.8049128 0.0969008264,54.5482553 0.0969008264,53.0344812 L0.0969008264,5.65270891 C0.0969008264,4.12286501 1.36480716,2.88227732 2.86893939,2.88227732 L66.9600781,2.88227732 C68.4899219,2.88227732 69.7321166,4.13732782 69.7321166,5.65270891 L69.7321166,53.0344812 C69.7321166,54.5643251 68.4626033,55.8049128 66.9391873,55.8049128 L39.0998852,55.8049128 C37.5571855,55.8049128 36.3069559,57.0390725 36.3069559,58.6171258 L36.3069559,66.9460973" id="Stroke-1" stroke="#0070BA" stroke-width="2" stroke-linecap="round" stroke-linejoin="round"></path>
                        <path d="M0.0964187328,44.5454545 L61.3753444,44.5454545" id="Stroke-3" stroke="#0070BA" stroke-width="2" stroke-linecap="round" stroke-linejoin="round"></path>
                        <path d="M11.2380854,66.4646465 L58.590932,66.4646465" id="Stroke-5" stroke="#0070BA" stroke-width="2" stroke-linecap="round" stroke-linejoin="round"></path>
                        <path d="M240.92904,20.9871442 L240.92904,66.9724518 C240.92904,68.4958678 239.682025,69.7316345 238.14736,69.7316345 L207.499059,69.7316345 C205.964394,69.7316345 204.718985,68.4637282 204.718985,66.959596 L204.718985,2.8684573 C204.718985,1.33861341 205.964394,0.0964187328 207.499059,0.0964187328 L238.14736,0.0964187328 C239.683632,0.0964187328 240.92904,1.33057851 240.92904,2.90863177 L240.92904,11.2376033 M204.718985,11.2376033 L240.92904,11.2376033 M204.868434,58.59045 L240.92904,58.59045" id="Stroke-7" stroke="#0070BA" stroke-width="2" stroke-linecap="round" stroke-linejoin="round"></path>
                        <path d="M113.520845,45.4035813 L118.571579,45.4035813 L118.571579,34.9180441 L102.94371,34.9180441 L102.94371,45.4035813 L107.676263,45.4035813 L107.676263,42.5078053 C107.676263,42.2121212 107.915702,41.9726814 108.211387,41.9726814 L112.985721,41.9726814 C113.281405,41.9726814 113.520845,42.2121212 113.520845,42.5078053 L113.520845,45.4035813 Z M165.784619,48.8601928 C162.040358,48.8601928 158.993526,45.8117539 158.993526,42.0658861 L158.993526,34.9180441 L119.641827,34.9180441 L119.641827,45.9387052 C119.641827,46.2343893 119.402388,46.4754362 119.106703,46.4754362 L112.985721,46.4754362 C112.68843,46.4754362 112.44899,46.2343893 112.44899,45.9387052 L112.44899,43.0429293 L108.748118,43.0429293 L108.748118,45.9387052 C108.748118,46.2343893 108.508678,46.4754362 108.211387,46.4754362 L102.406979,46.4754362 C102.111295,46.4754362 101.871855,46.2343893 101.871855,45.9387052 L101.871855,34.3829201 C101.871855,34.087236 102.111295,33.8477961 102.406979,33.8477961 L159.52865,33.8477961 C159.824334,33.8477961 160.065381,34.087236 160.065381,34.3829201 L160.065381,42.0658861 C160.065381,45.2219927 162.630119,47.7899449 165.784619,47.7899449 C168.940725,47.7899449 171.507071,45.2219927 171.507071,42.0658861 L171.507071,27.7589532 C171.507071,24.6044536 168.940725,22.0397153 165.784619,22.0397153 C162.630119,22.0397153 160.065381,24.6044536 160.065381,27.7589532 C160.065381,28.0546373 159.824334,28.2940771 159.52865,28.2940771 C159.232966,28.2940771 158.993526,28.0546373 158.993526,27.7589532 C158.993526,24.0146924 162.040358,20.9678604 165.784619,20.9678604 C169.530487,20.9678604 172.578926,24.0146924 172.578926,27.7589532 L172.578926,42.0658861 C172.578926,45.8117539 169.530487,48.8601928 165.784619,48.8601928 L165.784619,48.8601928 Z" id="Fill-9" fill="#0070BA"></path>
                        <path d="M113.518985,45.4035813 L118.56972,45.4035813 L118.56972,34.9180441 L102.94185,34.9180441 L102.94185,45.4035813 L107.674403,45.4035813 L107.674403,42.5078053 C107.674403,42.2121212 107.913843,41.9726814 108.209527,41.9726814 L112.983861,41.9726814 C113.279545,41.9726814 113.518985,42.2121212 113.518985,42.5078053 L113.518985,45.4035813 Z M165.782759,48.8601928 C162.038498,48.8601928 158.991666,45.8117539 158.991666,42.0658861 L158.991666,34.9180441 L119.639968,34.9180441 L119.639968,45.9387052 C119.639968,46.2343893 119.400528,46.4754362 119.104844,46.4754362 L112.983861,46.4754362 C112.68657,46.4754362 112.44713,46.2343893 112.44713,45.9387052 L112.44713,43.0429293 L108.746258,43.0429293 L108.746258,45.9387052 C108.746258,46.2343893 108.506818,46.4754362 108.209527,46.4754362 L102.405119,46.4754362 C102.109435,46.4754362 101.869995,46.2343893 101.869995,45.9387052 L101.869995,34.3829201 C101.869995,34.087236 102.109435,33.8477961 102.405119,33.8477961 L159.52679,33.8477961 C159.822474,33.8477961 160.063521,34.087236 160.063521,34.3829201 L160.063521,42.0658861 C160.063521,45.2219927 162.62826,47.7899449 165.782759,47.7899449 C168.938866,47.7899449 171.505211,45.2219927 171.505211,42.0658861 L171.505211,27.7589532 C171.505211,24.6044536 168.938866,22.0397153 165.782759,22.0397153 C162.62826,22.0397153 160.063521,24.6044536 160.063521,27.7589532 C160.063521,28.0546373 159.822474,28.2940771 159.52679,28.2940771 C159.231106,28.2940771 158.991666,28.0546373 158.991666,27.7589532 C158.991666,24.0146924 162.038498,20.9678604 165.782759,20.9678604 C169.528627,20.9678604 172.577066,24.0146924 172.577066,27.7589532 L172.577066,42.0658861 C172.577066,45.8117539 169.528627,48.8601928 165.782759,48.8601928 Z" id="Stroke-11" stroke="#0070BA"></path>
                    </g>
                </g>
            </g>
        </g>
    </g>
</svg>