<svg width="341" height="186" xmlns="http://www.w3.org/2000/svg" xmlns:xlink="http://www.w3.org/1999/xlink"><defs><path id="f" d="M167.105 56.771H.415V.076h166.69z"/><path id="h" d="M167.105 56.771H.415V.076h166.69z"/><path id="j" d="M.44 26.732h38.58V.683H.44z"/><path id="l" d="M.44 26.732h38.58V.683H.44z"/><mask id="c" maskContentUnits="userSpaceOnUse" maskUnits="objectBoundingBox" x="0" y="0" width="340" height="186" fill="#fff"><use xlink:href="#a"/></mask><mask id="d" maskContentUnits="userSpaceOnUse" maskUnits="objectBoundingBox" x="0" y="0" width="340" height="186" fill="#fff"><use xlink:href="#a"/></mask><mask id="n" maskContentUnits="userSpaceOnUse" maskUnits="objectBoundingBox" x="0" y="0" width="340" height="186" fill="#fff"><use xlink:href="#b"/></mask><mask id="o" maskContentUnits="userSpaceOnUse" maskUnits="objectBoundingBox" x="0" y="0" width="340" height="186" fill="#fff"><use xlink:href="#b"/></mask><rect id="a" x=".701" y="0" width="340" height="186" rx="10"/><rect id="b" x=".701" y="0" width="340" height="186" rx="10"/></defs><g fill="none" fill-rule="evenodd"><mask id="e" fill="#fff"><use xlink:href="#a"/></mask><g stroke="#A5CFE3" mask="url(#c)" stroke-width="4" fill="#FFF"><use mask="url(#d)" xlink:href="#a"/></g><g opacity=".796" mask="url(#e)"><path d="M194.114 37.75V59.3h3.778c1.578-8.83 2-14.827 1.987-22.126-1.908.243-3.83.435-5.765.576z" fill="#8FC3DC"/><path d="M194.114 37.75V59.3h3.778c1.578-8.83 2-14.827 1.987-22.126-1.908.243-3.83.435-5.765.576h0z" stroke="#8FC3DC" stroke-width="2"/><path d="M216.891 144.694l-27.996-14.983c-2.076-1.11-3.493-3.22-3.79-5.637l-2.008-16.388H138.72l-1.329 16.67c-.18 2.268-1.444 4.286-3.36 5.366l-26.576 14.972h109.437z" fill="#FFF"/><path d="M216.891 144.694l-27.996-14.983c-2.076-1.11-3.493-3.22-3.79-5.637l-2.008-16.388H138.72l-1.329 16.67c-.18 2.268-1.444 4.286-3.36 5.366l-26.576 14.972h109.437z" stroke="#8FC3DC" stroke-width="2"/><path d="M183.33 115.639l-.133-5.516-44.38-.886-.087 6.428c6.06 3.505 14.058 5.496 22.277 5.496 8.24 0 16.257-2 22.323-5.522" fill="#76C5EC" opacity=".2"/><path d="M160.908 114.292c-8.953 0-17.649-2.356-23.857-6.466-6.979-4.618-9.452-11.049-9.452-19.112l-1.064-62.872 34.373-1.351 34.373 1.35-1.065 62.873c0 8.063-2.472 14.494-9.45 19.112-6.208 4.11-14.904 6.466-23.858 6.466" fill="#FFF"/><path d="M160.908 114.292c-8.953 0-17.649-2.356-23.857-6.466-6.979-4.618-9.452-11.049-9.452-19.112l-1.064-62.872 34.373-1.351 34.373 1.35-1.065 62.873c0 8.063-2.472 14.494-9.45 19.112-6.208 4.11-14.904 6.466-23.858 6.466h0z" stroke="#8FC3DC" stroke-width="2"/><path d="M195.737 33.883c-3.01-10.316-6.447-15.03-16.74-15.835-5.89-.46-11.84-.696-17.843-.696-7.88 0-13.126.404-20.809 1.192-9.535.98-17.614 9.338-17.614 19.35 0 10.08 1.136 22.465 1.136 22.465l5.293-3.544c4.913-8.177 6.254-11.614 9.677-21.38 14.677 9.352 39.188 14.996 57.188 10.772 0 0 1.064-7.692-.288-12.324" fill="#76C5EC" opacity=".209"/><path d="M200.585 30.524c-3.01-10.317-11.78-17.645-22.073-18.451-5.89-.46-11.84-.695-17.842-.695-7.88 0-13.126.404-20.808 1.192-9.536.98-17.616 9.338-17.616 19.35 0 10.08-.89 20.14.71 30.079l.181 1.124.045-.006c.008-.011.201-.011.201-.011h3.728v-5.872a75.957 75.957 0 009.902-27.325c14.678 9.352 31.922 14.741 50.371 14.741 5.554 0 10.998-.49 16.296-1.428a139.213 139.213 0 00-3.095-12.698" fill="#8FC3DC"/><path d="M200.585 30.524c-3.01-10.317-11.78-17.645-22.073-18.451-5.89-.46-11.84-.695-17.842-.695-7.88 0-13.126.404-20.808 1.192-9.536.98-17.616 9.338-17.616 19.35 0 10.08-.89 20.14.71 30.079l.181 1.124.045-.006c.008-.011.201-.011.201-.011h3.728v-5.872a75.957 75.957 0 009.902-27.325c14.678 9.352 31.922 14.741 50.371 14.741 5.554 0 10.998-.49 16.296-1.428a139.213 139.213 0 00-3.095-12.698h0z" stroke="#8FC3DC" stroke-width="2"/><path d="M125.499 59.316h-1.52c-.398 0-.723.44-.723.979v12.086c0 1.96.94 3.627 2.243 4.218h1.328l.127-8.642.127-8.641h-1.582z" fill="#DFF6FF"/><path d="M125.381 59.316h-1.44c-.377 0-.685.44-.685.979v12.086c0 1.96.892 3.627 2.125 4.218h1.7V59.316h-1.7 0z" stroke="#8FC3DC" stroke-width="2"/><path d="M197.009 59.316h1.462c.384 0 .697.44.697.979v12.086c0 1.96-.906 3.627-2.16 4.218h-1.727V59.316h1.728z" fill="#DFF6FF"/><path d="M197.672 59.316c.399 0 .723.44.723.979v12.086c0 1.96-.94 3.627-2.242 4.218h-1.656l.213-17.283H197.672zM152.07 65.297c.463 4.124-2.675 5.063-6.622 5.547s-7.207.329-7.67-3.796c-.463-4.124 2.361-7.859 6.308-8.343 3.947-.483 7.521 2.468 7.984 6.592h0zM170.093 65.297c-.464 4.124 2.675 5.063 6.621 5.547 3.948.484 7.208.329 7.671-3.796.462-4.124-2.362-7.859-6.308-8.343-3.947-.483-7.521 2.468-7.984 6.592h0z" stroke="#8FC3DC" stroke-width="2"/><path d="M137.067 57.295c2.076-2.516 5.24-3.63 11.635-3.63 1.28 0 2.318-1.042 2.318-2.326a2.321 2.321 0 00-2.318-2.325c-7.65 0-12.119 1.575-15.206 5.316a2.33 2.33 0 00.307 3.274c.986.819 2.447.68 3.264-.309zM188.22 54.33c-3.087-3.741-7.555-5.316-15.206-5.316a2.321 2.321 0 00-2.318 2.325 2.321 2.321 0 002.318 2.325c6.395 0 9.56 1.115 11.636 3.631a2.313 2.313 0 003.263.309 2.33 2.33 0 00.308-3.274zM177.277 91.78c0 5.741-7.329 10.396-16.369 10.396S144.54 97.521 144.54 91.78h32.738z" fill="#8FC3DC"/><path d="M154.96 81.381c2.685 0 1.485-4.422 6.564-4.422 4.845 0 4.07 4.422 6.5 4.422" stroke="#8FC3DC" stroke-width="2" stroke-linecap="round" stroke-linejoin="round"/><path d="M178.747 64.845c0 .869-.675 1.573-1.506 1.573-.832 0-1.505-.704-1.505-1.573s.673-1.573 1.505-1.573c.831 0 1.506.704 1.506 1.573" fill="#8FC3DC"/><path d="M178.747 64.845c0 .869-.675 1.573-1.506 1.573-.832 0-1.505-.704-1.505-1.573s.673-1.573 1.505-1.573c.831 0 1.506.704 1.506 1.573h0z" stroke="#8FC3DC" stroke-width="2"/><path d="M146.428 64.845c0 .869-.675 1.573-1.506 1.573-.832 0-1.506-.704-1.506-1.573s.674-1.573 1.506-1.573c.831 0 1.506.704 1.506 1.573" fill="#8FC3DC"/><path d="M146.428 64.845c0 .869-.675 1.573-1.506 1.573-.832 0-1.506-.704-1.506-1.573s.674-1.573 1.506-1.573c.831 0 1.506.704 1.506 1.573h0z" stroke="#8FC3DC" stroke-width="2"/><path d="M174.334 94.6s-5.815 1.182-13.426 1.182-13.382-1.638-13.382-1.638l-.4-.388h27.564l-.356.845z" fill="#FFF"/><g transform="translate(79.627 129.773)"><mask id="g" fill="#fff"><use xlink:href="#f"/></mask><path d="M140.834 11.965L115.623.076s-8.574 10.336-33.28 10.336c-19.085 0-28.811-6.168-32.248-8.974a3.285 3.285 0 00-3.487-.407L23.943 11.806c-4.81 2.288-8.47 6.416-10.135 11.435L-.68 66.918l167.785.35-16.276-44.406a19.475 19.475 0 00-9.995-10.897" fill="#ADE8EE" mask="url(#g)"/></g><g transform="translate(79.627 129.773)"><mask id="i" fill="#fff"><use xlink:href="#h"/></mask><path d="M140.834 11.965L115.623.076s-8.574 10.336-33.28 10.336c-19.085 0-28.811-6.168-32.248-8.974a3.285 3.285 0 00-3.487-.407L23.943 11.806c-4.81 2.288-8.47 6.416-10.135 11.435L-.68 66.918l167.785.35-16.276-44.406a19.475 19.475 0 00-9.995-10.897h0z" stroke="#8FC3DC" stroke-width="2" mask="url(#i)"/></g><path d="M161.044 145.326c-28.197 0-38.493-11.763-38.493-11.763M199.025 133.563s-9.785 11.764-37.98 11.764" stroke="#8FC3DC" stroke-width="2" stroke-linecap="round" stroke-linejoin="round" stroke-dasharray="1,5"/><path d="M109.843 196.75c.668-2.142 4.616-16.576 5.283-18.719-1.55 2.765-.655 6.728 1.915 8.476" fill="#8FC3DC"/><path d="M109.843 196.75c.668-2.142 4.349-15.726 5.016-17.869-.667 2.901.104 6.296 2.674 8.044" stroke="#8FC3DC" stroke-width="2" stroke-linecap="round" stroke-linejoin="round"/><path d="M213.192 196.75c-.668-2.142-6.118-16.576-6.786-18.719 1.551 2.765.656 6.728-1.914 8.476" fill="#8FC3DC"/><path d="M213.192 196.75c-.668-2.142-6.118-16.576-6.786-18.719 1.551 2.765.656 6.728-1.914 8.476" stroke="#8FC3DC" stroke-width="2" stroke-linecap="round" stroke-linejoin="round"/><path d="M219.7 160.915c2.86 0 10.048-3.786 12.587-4.45 2.54-.664 7.52-1.83 8.873-4.172 1.51-2.612 1.02-6.237 1.015-6.607-.049-3.072-1.163-2.806-1.212-5.878-.012-.762-.033-1.56-.393-2.225-.36-.663-1.179-1.121-1.838-.794-8.994-.424-18.004-10.197-26.998-10.62-3.137-.149-6.48.868-9.177 2.55-2.988 1.864-4.549 4.618-4.226 8.238.323 3.621 2.333 6.933 5.023 9.24 2.69 2.306 7.228 14.721 16.347 14.718" fill="#FFF"/><path d="M219.7 160.915c2.86 0 10.048-3.786 12.587-4.45 2.54-.664 7.52-1.83 8.873-4.172 1.51-2.612 1.02-6.237 1.015-6.607-.049-3.072-1.163-2.806-1.212-5.878-.012-.762-.033-1.56-.393-2.225-.36-.663-1.179-1.121-1.838-.794-8.994-.424-18.004-10.197-26.998-10.62-3.137-.149-6.48.868-9.177 2.55-2.988 1.864-4.549 4.618-4.226 8.238.323 3.621 2.333 6.933 5.023 9.24 2.69 2.306 7.228 14.721 16.347 14.718h0z" stroke="#8FC3DC" stroke-width="2"/><path d="M241.222 147.79h-51.51a4.045 4.045 0 01-4.036-4.055v-29.441a4.046 4.046 0 014.037-4.054h51.509c2.229 0 4.037 1.815 4.037 4.054v29.44a4.046 4.046 0 01-4.037 4.055" fill="#FFF"/><path d="M241.222 147.79h-51.51a4.045 4.045 0 01-4.036-4.055v-29.441a4.046 4.046 0 014.037-4.054h51.509c2.229 0 4.037 1.815 4.037 4.054v29.44a4.046 4.046 0 01-4.037 4.055h0z" stroke="#8FC3DC" stroke-width="2"/><path d="M235.17 110.24h-6.454c-2.589 0-5.15-.043-5.425-3.116-.276-3.074 1.884-5.799 4.826-6.087 2.941-.288 6.801 6.128 7.054 9.203" fill="#FFF"/><path d="M236.008 109.918h-6.455c-2.589 0-5.15-.04-5.425-2.84-.276-2.8 1.884-5.282 4.826-5.544 2.941-.263 6.801 5.582 7.054 8.384h0z" stroke="#8FC3DC" stroke-width="2"/><path d="M224.04 105.812c.414 3.056-1.94 3.533-4.865 3.964-2.925.433-5.314.658-5.727-2.398-.413-3.057 1.622-5.885 4.547-6.318 2.926-.431 5.632 1.696 6.045 4.752" fill="#FFF"/><path d="M224.04 106.16c.414 2.784-1.94 3.217-4.865 3.61-2.925.395-5.314.6-5.727-2.185-.413-2.784 1.622-5.36 4.547-5.755 2.926-.393 5.632 1.545 6.045 4.33h0z" stroke="#8FC3DC" stroke-width="2"/><path d="M213.318 106.091c.27 3.074-2.104 3.43-5.046 3.71-2.942.283-5.337.386-5.608-2.689-.269-3.074 1.897-5.794 4.838-6.076 2.942-.282 5.545 1.981 5.816 5.055" fill="#FFF"/><path d="M213.318 106.152c.27 2.8-2.104 3.124-5.046 3.38-2.942.258-5.337.351-5.608-2.45-.269-2.8 1.897-5.278 4.838-5.535 2.942-.257 5.545 1.805 5.816 4.605h0z" stroke="#8FC3DC" stroke-width="2"/><path d="M225.455 153.368c0 4.575-2.662 8.336-14.041 8.974-5.235.294-14.28-9.096-21.96-10.93-4.658-1.112-2.7-6.467.2-6.953 3.828-.643 15.84 3.746 20.695 4.936" fill="#FFF"/><path d="M225.455 153.368c0 4.575-2.662 8.336-14.041 8.974-5.235.294-14.28-9.096-21.96-10.93-4.658-1.112-2.7-6.467.2-6.953 3.828-.643 15.84 3.746 20.695 4.936" stroke="#8FC3DC" stroke-width="2" stroke-linecap="round" stroke-linejoin="round"/><g transform="translate(215.897 159.813)"><mask id="k" fill="#fff"><use xlink:href="#j"/></mask><path d="M27.644 55.99C17.97 58.978 7.902 52.77 5.73 42.476L.44 8.148 24.594.683 38.77 31.602c3.96 9.968-1.222 21.325-11.127 24.387" fill="#ADE8EE" mask="url(#k)"/></g><g transform="translate(215.897 159.813)"><mask id="m" fill="#fff"><use xlink:href="#l"/></mask><path d="M27.644 55.99h0C17.97 58.978 7.902 52.77 5.73 42.476L.44 8.148 24.594.683 38.77 31.602c3.96 9.968-1.222 21.325-11.127 24.387h0z" stroke="#8FC3DC" stroke-width="2" mask="url(#m)"/></g><path d="M243.279 168.864l-24.704 7.635a2.844 2.844 0 01-3.575-1.95l-2.526-8.923a2.861 2.861 0 011.901-3.515l24.703-7.635c1.525-.47 3.14.41 3.576 1.951l2.526 8.923a2.86 2.86 0 01-1.901 3.514" fill="#ADE8EE"/><path d="M243.279 168.864l-24.704 7.635a2.844 2.844 0 01-3.575-1.95l-2.526-8.923a2.861 2.861 0 011.901-3.515l24.703-7.635c1.525-.47 3.14.41 3.576 1.951l2.526 8.923a2.86 2.86 0 01-1.901 3.514h0z" stroke="#8FC3DC" stroke-width="2"/><path d="M214.833 173.618l30.146-9.318" stroke="#8FC3DC" stroke-width="2" stroke-linecap="round" stroke-linejoin="round" stroke-dasharray="1,5"/><path d="M235.303 124.056v3.249h.593c.248-1.331.314-2.236.312-3.336-.3.037-.601.066-.905.087" fill="#ACC9D7"/><path d="M235.303 124.056v3.249h.593c.248-1.331.314-2.236.312-3.336-.3.037-.601.066-.905.087h0z" stroke="#8FC3DC" stroke-linecap="round" stroke-linejoin="round"/><path fill="#FFF" d="M238.877 140.18l-4.913-2.526-.39-3.053h-6.961l-.254 3.06-4.651 2.52z"/><path stroke="#8FC3DC" stroke-width=".5" stroke-linecap="round" stroke-linejoin="round" d="M238.877 140.18l-4.913-2.526-.39-3.053h-6.961l-.254 3.06-4.651 2.52z"/><path d="M230.094 135.597c-1.405 0-2.769-.355-3.743-.975-1.095-.696-1.65-1.666-1.65-2.881v-9.48l5.393-.204 5.393.203v9.48c0 1.216-.555 2.186-1.65 2.882-.975.62-2.338.975-3.743.975" fill="#FFF"/><path d="M230.094 135.597c-1.405 0-2.769-.355-3.743-.975-1.095-.696-1.65-1.666-1.65-2.881v-9.48l5.393-.204 5.393.203v9.48c0 1.216-.555 2.186-1.65 2.882-.975.62-2.338.975-3.743.975h0z" stroke="#8FC3DC" stroke-width=".5" stroke-linecap="round" stroke-linejoin="round"/><path d="M228.707 128.21c.073.621-.42.763-1.039.836-.62.072-1.13.049-1.203-.573a1.13 1.13 0 112.242-.264" fill="#FFF"/><path d="M236.22 122.336a3.93 3.93 0 00-3.462-2.781 36.984 36.984 0 00-6.463.074 2.922 2.922 0 00-2.63 2.918c0 1.52.125 3.037.377 4.536l.029.169.006-.001c.001-.002.031-.002.031-.002h.585v-.885a11.17 11.17 0 001.555-4.12 15.083 15.083 0 007.902 2.222c.871 0 1.725-.074 2.556-.215a20.431 20.431 0 00-.485-1.915" fill="#8FC3DC"/><path d="M236.22 122.336a3.93 3.93 0 00-3.462-2.781 36.984 36.984 0 00-6.463.074 2.922 2.922 0 00-2.63 2.918c0 1.52.125 3.037.377 4.536l.029.169.006-.001c.001-.002.031-.002.031-.002h.585v-.885a11.17 11.17 0 001.555-4.12 15.083 15.083 0 007.902 2.222c.871 0 1.725-.074 2.556-.215a20.431 20.431 0 00-.485-1.915h0z" stroke="#8FC3DC" stroke-linecap="round" stroke-linejoin="round"/><path d="M224.334 127.308h-.31a.148.148 0 00-.146.147v1.823c0 .295.191.546.456.635h.364v-2.605h-.364z" fill="#FFF"/><path d="M224.334 127.308h-.31a.148.148 0 00-.146.147v1.823c0 .295.191.546.456.635h.364v-2.605h-.364 0z" stroke="#8FC3DC" stroke-width=".5" stroke-linecap="round" stroke-linejoin="round"/><path d="M235.851 127.308h.31c.08 0 .147.066.147.147v1.823a.671.671 0 01-.457.635h-.364v-2.605h.364z" fill="#FFF"/><path d="M235.851 127.308h.31c.08 0 .147.066.147.147v1.823a.671.671 0 01-.457.635h-.364v-2.605h.364z" stroke="#8FC3DC" stroke-width=".5" stroke-linecap="round" stroke-linejoin="round"/><path d="M228.015 128.236a.332.332 0 01-.332.332.332.332 0 110-.664c.184 0 .332.148.332.332" fill="#ACC9D7"/><path d="M228.015 128.236a.332.332 0 01-.332.332.332.332 0 110-.664c.184 0 .332.148.332.332h0z" stroke="#8FC3DC" stroke-width=".25"/><path d="M239.503 140.25l-4.291-2.308s-1.274 1.559-4.945 1.559c-3.67 0-5.01-1.559-5.01-1.559l-4.251 2.309h18.497z" fill="#8FC3DC"/><path d="M239.503 140.25l-4.291-2.308s-1.274 1.559-4.945 1.559c-3.67 0-5.01-1.559-5.01-1.559l-4.251 2.309h18.497z" stroke="#8FC3DC" stroke-linecap="round" stroke-linejoin="round"/><path d="M214.758 139.523c1.889-.438 1.459-3.166 2.287-3.83.827-.664-.084 3.158.794 2.993.877-.166 1.089-3.308 2-3.71.914-.401-.64 4.138.847 3.643 1.488-.495 1.916-1.134 2.862-3.025.555-1.111-.53-1.945-1.59-.057-1.32 2.352 1.824 4.729 6.047.657" stroke="#8FC3DC" stroke-linecap="round" stroke-linejoin="round"/><path d="M191.655 125.107h24.704M191.655 127.764h24.704M191.655 131.75h20.934" stroke="#8FC3DC"/><path d="M191.696 134.602v5.65M193.026 134.6v5.65" stroke="#8FC3DC" stroke-width=".5"/><path d="M197.458 134.6v5.65" stroke="#8FC3DC"/><path d="M198.615 134.6v5.65M200.93 134.6v5.65" stroke="#8FC3DC" stroke-width=".5"/><path d="M202.087 134.6v5.65M203.823 134.6v5.65" stroke="#8FC3DC"/><path d="M203.823 134.6v5.65M204.98 134.6v5.65M204.665 134.6v5.65M205.995 134.6v5.65M209.03 134.6v5.65" stroke="#8FC3DC" stroke-width=".5"/><path d="M209.609 134.6v5.65M211.345 134.6v5.65" stroke="#8FC3DC"/><path d="M211.923 134.6v5.65" stroke="#8FC3DC" stroke-width=".5"/><path d="M213.08 134.6v5.65" stroke="#8FC3DC"/><path fill="#8FC3DC" d="M192.006 123.486h2.14v-8.183h-2.14zM197.994 116.53v5.643h1.355c.983 0 1.225-.551 1.225-2.747 0-2.588-.256-2.895-1.225-2.895h-1.355zm-2.153-1.263l3.45.012c2.424.013 3.408.65 3.408 4.147 0 3.324-.799 4.061-3.264 4.061h-3.594v-8.22z"/></g><g stroke="#A5CFE3" mask="url(#n)" stroke-width="4"><use mask="url(#o)" xlink:href="#b"/></g></g></svg>