<?xml version="1.0" encoding="UTF-8"?>
<svg width="48px" height="48px" viewBox="0 0 48 48" version="1.1" xmlns="http://www.w3.org/2000/svg" xmlns:xlink="http://www.w3.org/1999/xlink">
    <!-- Generator: Sketch 49 (51002) - http://www.bohemiancoding.com/sketch -->
    <title>img_mobile48</title>
    <desc>Created with Sketch.</desc>
    <defs>
        <linearGradient x1="100%" y1="100%" x2="0%" y2="0%" id="linearGradient-1">
            <stop stop-color="#004C9E" offset="0%"></stop>
            <stop stop-color="#0796D8" offset="100%"></stop>
        </linearGradient>
    </defs>
    <g id="Symbols" stroke="none" stroke-width="1" fill="none" fill-rule="evenodd">
        <g id="Screen---Activity-Review" transform="translate(-11.000000, -246.000000)" fill="url(#linearGradient-1)">
            <g id="icons" transform="translate(11.000000, 228.000000)">
                <g id="icon-mobile" transform="translate(0.000000, 18.000000)">
                    <path d="M12.8461538,7.38461538 L35,7.38461538 L35,2.78584615 C35,2.25969231 34.5956923,1.84615385 34.0806154,1.84615385 L13.7655385,1.84615385 C13.2596923,1.84615385 12.8461538,2.256 12.8461538,2.76184615 L12.8461538,7.38461538 Z M12.8461538,40.6153846 L12.8461538,45.2381538 C12.8461538,45.7347692 13.2689231,46.1538462 13.7655385,46.1538462 L34.0806154,46.1538462 C34.5864615,46.1538462 35,45.7476923 35,45.2473846 L35,40.6153846 L12.8461538,40.6153846 Z M34.0806154,48 L13.7655385,48 C12.2406154,48 11,46.7612308 11,45.2381538 L11,2.76184615 C11,1.23876923 12.2406154,0 13.7655385,0 L34.0806154,0 C35.6055385,0 36.8461538,1.24984615 36.8461538,2.78584615 L36.8461538,8.30769231 C36.8461538,8.81723077 36.4326154,9.23076923 35.9230769,9.23076923 L12.8461538,9.23076923 L12.8461538,38.7692308 L35,38.7692308 L35,14.7692308 C35,14.2596923 35.4135385,13.8461538 35.9230769,13.8461538 C36.4326154,13.8461538 36.8461538,14.2596923 36.8461538,14.7692308 L36.8461538,45.2473846 C36.8461538,46.7649231 35.6055385,48 34.0806154,48 L34.0806154,48 Z" id="Mobile"></path>
                </g>
            </g>
        </g>
    </g>
</svg>