<?xml version="1.0" encoding="UTF-8" standalone="no"?>
<svg width="342px" height="203px" viewBox="0 0 342 203" version="1.1" xmlns="http://www.w3.org/2000/svg" xmlns:xlink="http://www.w3.org/1999/xlink">
    <!-- Generator: Sketch 3.8.2 (29753) - http://www.bohemiancoding.com/sketch -->
    <title>Group 8</title>
    <desc>Created with Sketch.</desc>
    <defs></defs>
    <g id="Actual" stroke="none" stroke-width="1" fill="none" fill-rule="evenodd">
        <g id="Artboard-1-Copy-2" transform="translate(-826.000000, -602.000000)">
            <g id="Group-8" transform="translate(826.000000, 603.000000)">
                <g id="Group" transform="translate(0.000000, 106.811338)">
                    <g id="Group-12" transform="translate(0.710357, 0.018742)">
                        <g id="Page-1" transform="translate(-0.000000, 0.000000)">
                            <path d="M143.589483,93.9768664 L10.7639649,93.9768664 C5.01303961,93.9768664 0.353447429,89.4444833 0.353447429,83.8505611 L0.353447429,10.3153555 C0.353447429,4.72421217 5.01303961,0.189050214 10.7639649,0.189050214 L143.589483,0.189050214 C149.337551,0.189050214 154,4.72421217 154,10.3153555 L154,83.8505611 C154,89.4444833 149.337551,93.9768664 143.589483,93.9768664 L143.589483,93.9768664 Z" id="Stroke-75" stroke="#8FC3DC" stroke-width="2" fill="#FFFFFF"></path>
                            <path d="M30.9150746,52.5058741 L17.2801395,52.5058741 C14.7008619,52.5058741 12.5867,50.4346448 12.5867,47.9016061 L12.5867,38.1455356 C12.5867,35.6152622 14.7008619,33.544033 17.2801395,33.544033 L30.9150746,33.544033 C33.497171,33.544033 35.6085141,35.6152622 35.6085141,38.1455356 L35.6085141,47.9016061 C35.6085141,50.4346448 33.497171,52.5058741 30.9150746,52.5058741" id="Fill-1" fill="#8FC3DC"></path>
                            <path d="M15.3905094,75.0345088 C17.7681594,75.0345088 18.1572294,74.1122688 18.1572294,70.9708888 C18.1572294,67.8727388 17.7825694,66.9360888 15.3905094,66.9360888 C12.9552195,66.9360888 12.6093795,67.7862788 12.6093795,70.9708888 C12.6093795,74.0978588 12.9263995,75.0345088 15.3905094,75.0345088 L15.3905094,75.0345088 Z M15.4049194,73.5935088 C14.6123694,73.5935088 14.5114994,73.1323888 14.5114994,70.9708888 C14.5114994,68.8093888 14.6123694,68.3770888 15.4049194,68.3770888 C16.1686494,68.3770888 16.2695194,68.7373388 16.2695194,70.9708888 C16.2695194,73.1323888 16.1686494,73.5935088 15.4049194,73.5935088 L15.4049194,73.5935088 Z M22.4514094,75.0345088 C24.8290593,75.0345088 25.2181293,74.1122688 25.2181293,70.9708888 C25.2181293,67.8727388 24.8434693,66.9360888 22.4514094,66.9360888 C20.0161194,66.9360888 19.6702794,67.7862788 19.6702794,70.9708888 C19.6702794,74.0978588 19.9872994,75.0345088 22.4514094,75.0345088 L22.4514094,75.0345088 Z M22.4658193,73.5935088 C21.6732694,73.5935088 21.5723994,73.1323888 21.5723994,70.9708888 C21.5723994,68.8093888 21.6732694,68.3770888 22.4658193,68.3770888 C23.2295493,68.3770888 23.3304193,68.7373388 23.3304193,70.9708888 C23.3304193,73.1323888 23.2295493,73.5935088 22.4658193,73.5935088 L22.4658193,73.5935088 Z M29.5123093,75.0345088 C31.8899593,75.0345088 32.2790292,74.1122688 32.2790292,70.9708888 C32.2790292,67.8727388 31.9043692,66.9360888 29.5123093,66.9360888 C27.0770193,66.9360888 26.7311793,67.7862788 26.7311793,70.9708888 C26.7311793,74.0978588 27.0481993,75.0345088 29.5123093,75.0345088 L29.5123093,75.0345088 Z M29.5267193,73.5935088 C28.7341693,73.5935088 28.6332993,73.1323888 28.6332993,70.9708888 C28.6332993,68.8093888 28.7341693,68.3770888 29.5267193,68.3770888 C30.2904493,68.3770888 30.3913193,68.7373388 30.3913193,70.9708888 C30.3913193,73.1323888 30.2904493,73.5935088 29.5267193,73.5935088 L29.5267193,73.5935088 Z M36.5732092,75.0345088 C38.9508592,75.0345088 39.3399292,74.1122688 39.3399292,70.9708888 C39.3399292,67.8727388 38.9652692,66.9360888 36.5732092,66.9360888 C34.1379192,66.9360888 33.7920792,67.7862788 33.7920792,70.9708888 C33.7920792,74.0978588 34.1090992,75.0345088 36.5732092,75.0345088 L36.5732092,75.0345088 Z M36.5876192,73.5935088 C35.7950692,73.5935088 35.6941992,73.1323888 35.6941992,70.9708888 C35.6941992,68.8093888 35.7950692,68.3770888 36.5876192,68.3770888 C37.3513492,68.3770888 37.4522192,68.7373388 37.4522192,70.9708888 C37.4522192,73.1323888 37.3513492,73.5935088 36.5876192,73.5935088 L36.5876192,73.5935088 Z M49.1099091,75.0345088 C51.487559,75.0345088 51.876629,74.1122688 51.876629,70.9708888 C51.876629,67.8727388 51.501969,66.9360888 49.1099091,66.9360888 C46.6746191,66.9360888 46.3287791,67.7862788 46.3287791,70.9708888 C46.3287791,74.0978588 46.6457991,75.0345088 49.1099091,75.0345088 L49.1099091,75.0345088 Z M49.1243191,73.5935088 C48.3317691,73.5935088 48.2308991,73.1323888 48.2308991,70.9708888 C48.2308991,68.8093888 48.3317691,68.3770888 49.1243191,68.3770888 C49.8880491,68.3770888 49.9889191,68.7373388 49.9889191,70.9708888 C49.9889191,73.1323888 49.8880491,73.5935088 49.1243191,73.5935088 L49.1243191,73.5935088 Z M56.170809,75.0345088 C58.548459,75.0345088 58.937529,74.1122688 58.937529,70.9708888 C58.937529,67.8727388 58.562869,66.9360888 56.170809,66.9360888 C53.735519,66.9360888 53.389679,67.7862788 53.389679,70.9708888 C53.389679,74.0978588 53.706699,75.0345088 56.170809,75.0345088 L56.170809,75.0345088 Z M56.185219,73.5935088 C55.392669,73.5935088 55.291799,73.1323888 55.291799,70.9708888 C55.291799,68.8093888 55.392669,68.3770888 56.185219,68.3770888 C56.948949,68.3770888 57.049819,68.7373388 57.049819,70.9708888 C57.049819,73.1323888 56.948949,73.5935088 56.185219,73.5935088 L56.185219,73.5935088 Z M63.2317089,75.0345088 C65.6093589,75.0345088 65.9984289,74.1122688 65.9984289,70.9708888 C65.9984289,67.8727388 65.6237689,66.9360888 63.2317089,66.9360888 C60.7964189,66.9360888 60.4505789,67.7862788 60.4505789,70.9708888 C60.4505789,74.0978588 60.7675989,75.0345088 63.2317089,75.0345088 L63.2317089,75.0345088 Z M63.2461189,73.5935088 C62.4535689,73.5935088 62.3526989,73.1323888 62.3526989,70.9708888 C62.3526989,68.8093888 62.4535689,68.3770888 63.2461189,68.3770888 C64.0098489,68.3770888 64.1107189,68.7373388 64.1107189,70.9708888 C64.1107189,73.1323888 64.0098489,73.5935088 63.2461189,73.5935088 L63.2461189,73.5935088 Z M70.2926088,75.0345088 C72.6702588,75.0345088 73.0593288,74.1122688 73.0593288,70.9708888 C73.0593288,67.8727388 72.6846688,66.9360888 70.2926088,66.9360888 C67.8573189,66.9360888 67.5114789,67.7862788 67.5114789,70.9708888 C67.5114789,74.0978588 67.8284989,75.0345088 70.2926088,75.0345088 L70.2926088,75.0345088 Z M70.3070188,73.5935088 C69.5144689,73.5935088 69.4135989,73.1323888 69.4135989,70.9708888 C69.4135989,68.8093888 69.5144689,68.3770888 70.3070188,68.3770888 C71.0707488,68.3770888 71.1716188,68.7373388 71.1716188,70.9708888 C71.1716188,73.1323888 71.0707488,73.5935088 70.3070188,73.5935088 L70.3070188,73.5935088 Z M82.8293087,75.0345088 C85.2069587,75.0345088 85.5960287,74.1122688 85.5960287,70.9708888 C85.5960287,67.8727388 85.2213687,66.9360888 82.8293087,66.9360888 C80.3940187,66.9360888 80.0481787,67.7862788 80.0481787,70.9708888 C80.0481787,74.0978588 80.3651987,75.0345088 82.8293087,75.0345088 L82.8293087,75.0345088 Z M82.8437187,73.5935088 C82.0511687,73.5935088 81.9502987,73.1323888 81.9502987,70.9708888 C81.9502987,68.8093888 82.0511687,68.3770888 82.8437187,68.3770888 C83.6074487,68.3770888 83.7083187,68.7373388 83.7083187,70.9708888 C83.7083187,73.1323888 83.6074487,73.5935088 82.8437187,73.5935088 L82.8437187,73.5935088 Z M89.8902086,75.0345088 C92.2678586,75.0345088 92.6569286,74.1122688 92.6569286,70.9708888 C92.6569286,67.8727388 92.2822686,66.9360888 89.8902086,66.9360888 C87.4549187,66.9360888 87.1090787,67.7862788 87.1090787,70.9708888 C87.1090787,74.0978588 87.4260987,75.0345088 89.8902086,75.0345088 L89.8902086,75.0345088 Z M89.9046186,73.5935088 C89.1120686,73.5935088 89.0111986,73.1323888 89.0111986,70.9708888 C89.0111986,68.8093888 89.1120686,68.3770888 89.9046186,68.3770888 C90.6683486,68.3770888 90.7692186,68.7373388 90.7692186,70.9708888 C90.7692186,73.1323888 90.6683486,73.5935088 89.9046186,73.5935088 L89.9046186,73.5935088 Z M96.9511086,75.0345088 C99.3287585,75.0345088 99.7178285,74.1122688 99.7178285,70.9708888 C99.7178285,67.8727388 99.3431685,66.9360888 96.9511086,66.9360888 C94.5158186,66.9360888 94.1699786,67.7862788 94.1699786,70.9708888 C94.1699786,74.0978588 94.4869986,75.0345088 96.9511086,75.0345088 L96.9511086,75.0345088 Z M96.9655186,73.5935088 C96.1729686,73.5935088 96.0720986,73.1323888 96.0720986,70.9708888 C96.0720986,68.8093888 96.1729686,68.3770888 96.9655186,68.3770888 C97.7292486,68.3770888 97.8301186,68.7373388 97.8301186,70.9708888 C97.8301186,73.1323888 97.7292486,73.5935088 96.9655186,73.5935088 L96.9655186,73.5935088 Z M104.012008,75.0345088 C106.389658,75.0345088 106.778728,74.1122688 106.778728,70.9708888 C106.778728,67.8727388 106.404068,66.9360888 104.012008,66.9360888 C101.576719,66.9360888 101.230879,67.7862788 101.230879,70.9708888 C101.230879,74.0978588 101.547899,75.0345088 104.012008,75.0345088 L104.012008,75.0345088 Z M104.026418,73.5935088 C103.233868,73.5935088 103.132998,73.1323888 103.132998,70.9708888 C103.132998,68.8093888 103.233868,68.3770888 104.026418,68.3770888 C104.790148,68.3770888 104.891018,68.7373388 104.891018,70.9708888 C104.891018,73.1323888 104.790148,73.5935088 104.026418,73.5935088 L104.026418,73.5935088 Z M116.548708,75.0345088 C118.926358,75.0345088 119.315428,74.1122688 119.315428,70.9708888 C119.315428,67.8727388 118.940768,66.9360888 116.548708,66.9360888 C114.113418,66.9360888 113.767578,67.7862788 113.767578,70.9708888 C113.767578,74.0978588 114.084598,75.0345088 116.548708,75.0345088 L116.548708,75.0345088 Z M116.563118,73.5935088 C115.770568,73.5935088 115.669698,73.1323888 115.669698,70.9708888 C115.669698,68.8093888 115.770568,68.3770888 116.563118,68.3770888 C117.326848,68.3770888 117.427718,68.7373388 117.427718,70.9708888 C117.427718,73.1323888 117.326848,73.5935088 116.563118,73.5935088 L116.563118,73.5935088 Z M123.609608,75.0345088 C125.987258,75.0345088 126.376328,74.1122688 126.376328,70.9708888 C126.376328,67.8727388 126.001668,66.9360888 123.609608,66.9360888 C121.174318,66.9360888 120.828478,67.7862788 120.828478,70.9708888 C120.828478,74.0978588 121.145498,75.0345088 123.609608,75.0345088 L123.609608,75.0345088 Z M123.624018,73.5935088 C122.831468,73.5935088 122.730598,73.1323888 122.730598,70.9708888 C122.730598,68.8093888 122.831468,68.3770888 123.624018,68.3770888 C124.387748,68.3770888 124.488618,68.7373388 124.488618,70.9708888 C124.488618,73.1323888 124.387748,73.5935088 123.624018,73.5935088 L123.624018,73.5935088 Z M130.670508,75.0345088 C133.048158,75.0345088 133.437228,74.1122688 133.437228,70.9708888 C133.437228,67.8727388 133.062568,66.9360888 130.670508,66.9360888 C128.235218,66.9360888 127.889378,67.7862788 127.889378,70.9708888 C127.889378,74.0978588 128.206398,75.0345088 130.670508,75.0345088 L130.670508,75.0345088 Z M130.684918,73.5935088 C129.892368,73.5935088 129.791498,73.1323888 129.791498,70.9708888 C129.791498,68.8093888 129.892368,68.3770888 130.684918,68.3770888 C131.448648,68.3770888 131.549518,68.7373388 131.549518,70.9708888 C131.549518,73.1323888 131.448648,73.5935088 130.684918,73.5935088 L130.684918,73.5935088 Z M134.359468,68.5500088 L135.944568,68.5500088 L135.944568,74.9048188 L137.861098,74.9048188 L137.861098,67.0801888 L134.359468,67.0801888 L134.359468,68.5500088 Z" id="0000--0000--0000--0001" fill="#8FC3DC"></path>
                            <g id="Group-23" transform="translate(109.673591, 23.369569)">
                                <g id="Group-11" transform="translate(13.719063, 0.000000)" fill="#8FC3DC" opacity="0.566522854">
                                    <path d="M5.96095918,0.0331839133 C3.88916284,0.0331839133 2.00411998,0.804709896 0.571370681,2.0656986 C2.23756182,3.52855611 3.29096812,5.65509188 3.29096812,8.02774168 C3.29096812,10.4003915 2.23756182,12.5269273 0.571370681,13.9897848 C2.00411998,15.2507735 3.88916284,16.0222994 5.96095918,16.0222994 C10.4401245,16.0222994 14.0730631,12.4439675 14.0730631,8.02774168 C14.0730631,3.61151589 10.4401245,0.0331839133 5.96095918,0.0331839133" id="Fill-3"></path>
                                </g>
                                <g id="Group-20" fill="#8FC3DC" opacity="0.566522854">
                                    <path d="M11.568794,8.02774168 C11.568794,5.65509188 12.6251183,3.52855611 14.2883915,2.0656986 C12.8556422,0.804709896 10.9705993,0.0331839133 8.89880296,0.0331839133 C4.41963765,0.0331839133 0.789617026,3.61151589 0.789617026,8.02774168 C0.789617026,12.4439675 4.41963765,16.0222994 8.89880296,16.0222994 C10.9705993,16.0222994 12.8556422,15.2507735 14.2883915,13.9897848 C12.6251183,12.5269273 11.568794,10.4003915 11.568794,8.02774168" id="Fill-12"></path>
                                </g>
                                <path d="M17.0106151,8.02774168 C17.0106151,5.65509188 15.9572088,3.52855611 14.2910177,2.0656986 C12.6248265,3.52855611 11.5685022,5.65509188 11.5685022,8.02774168 C11.5685022,10.4003915 12.6248265,12.5269273 14.2910177,13.9897848 C15.9572088,12.5269273 17.0106151,10.4003915 17.0106151,8.02774168" id="Fill-21" fill="#75ACC6"></path>
                            </g>
                            <g id="Group-36" transform="translate(102.200606, 43.561967)" fill="#8FC3DC">
                                <polygon id="Fill-28" points="12.5834919 11.193776 15.4051933 11.193776 17.1726327 0.624699639 14.3481124 0.624699639"></polygon>
                                <path d="M22.8653661,4.86836908 C21.8787572,4.37890636 21.2726974,4.05259788 21.2811541,3.55760451 C21.2811541,3.11791766 21.7913718,2.64781222 22.8963738,2.64781222 C23.8209673,2.63398559 24.4890425,2.83861972 25.0105357,3.05431515 L25.2642352,3.1759895 L25.6476032,0.886299489 C25.0866456,0.670604053 24.2099731,0.441081986 23.1162466,0.441081986 C20.3255529,0.441081986 18.3607917,1.87352091 18.3438784,3.9281582 C18.3269651,5.44632224 19.747682,6.29527735 20.8188573,6.80133203 C21.9154027,7.31844801 22.2846763,7.64752181 22.2818574,8.1120966 C22.2734007,8.82002008 21.402366,9.14356324 20.5905278,9.14356324 C19.4629748,9.14356324 18.8625528,8.98317432 17.9351404,8.58773269 L17.5686857,8.42181312 L17.1740422,10.7861669 C17.8336607,11.0820568 19.0542368,11.3364668 20.3199151,11.3502935 C23.2881985,11.3502935 25.2134953,9.9344465 25.2360463,7.73877758 C25.2473219,6.53862605 24.4946802,5.62330311 22.8653661,4.86836908" id="Fill-30"></path>
                                <path d="M32.8862118,0.635207879 L30.7043967,0.635207879 C30.0278649,0.635207879 29.5232849,0.823250054 29.2273022,1.51181625 L25.0328049,11.1959883 L27.9982694,11.1959883 C27.9982694,11.1959883 28.4831172,9.89351968 28.5930536,9.60869109 C28.9172251,9.60869109 31.7953042,9.61422174 32.2068611,9.61422174 C32.2914276,9.98201011 32.5507648,11.1959883 32.5507648,11.1959883 L35.1723256,11.1959883 L32.8862118,0.635207879 Z M29.4048918,7.44620607 C29.6388591,6.83783433 30.529626,4.49283779 30.529626,4.49283779 C30.5127127,4.52049106 30.7607743,3.88170073 30.9045373,3.48349377 L31.0962214,4.39605138 C31.0962214,4.39605138 31.6346279,6.91802879 31.7473832,7.44620607 L29.4048918,7.44620607 Z" id="Fill-32"></path>
                                <path d="M10.2150667,0.632719085 L7.4497429,7.83915891 L7.15657911,6.3763014 L6.16715132,1.51762344 C5.99519948,0.848414521 5.49907615,0.649311042 4.88737863,0.627188433 L0.334883251,0.627188433 L0.298237778,0.845649195 C1.40605863,1.11941648 2.39548642,1.51485811 3.26370226,2.00432083 L5.77250776,11.1852035 L8.7605233,11.1824382 L13.2059011,0.632719085 L10.2150667,0.632719085" id="Fill-34"></path>
                            </g>
                        </g>
                    </g>
                </g>
                <g id="Group-Copy" transform="translate(185.448071, 106.427184)">
                    <g id="Group-12" transform="translate(0.710357, 0.018742)">
                        <g id="Page-1" transform="translate(-0.000000, 0.000000)">
                            <path d="M143.589483,93.9768664 L10.7639649,93.9768664 C5.01303961,93.9768664 0.353447429,89.4444833 0.353447429,83.8505611 L0.353447429,10.3153555 C0.353447429,4.72421217 5.01303961,0.189050214 10.7639649,0.189050214 L143.589483,0.189050214 C149.337551,0.189050214 154,4.72421217 154,10.3153555 L154,83.8505611 C154,89.4444833 149.337551,93.9768664 143.589483,93.9768664 L143.589483,93.9768664 Z" id="Stroke-75" stroke="#8FC3DC" stroke-width="2" fill="#FFFFFF"></path>
                            <path d="M30.9150746,52.5058741 L17.2801395,52.5058741 C14.7008619,52.5058741 12.5867,50.4346448 12.5867,47.9016061 L12.5867,38.1455356 C12.5867,35.6152622 14.7008619,33.544033 17.2801395,33.544033 L30.9150746,33.544033 C33.497171,33.544033 35.6085141,35.6152622 35.6085141,38.1455356 L35.6085141,47.9016061 C35.6085141,50.4346448 33.497171,52.5058741 30.9150746,52.5058741" id="Fill-1" fill="#8FC3DC"></path>
                            <path d="M15.3905094,75.0345088 C17.7681594,75.0345088 18.1572294,74.1122688 18.1572294,70.9708888 C18.1572294,67.8727388 17.7825694,66.9360888 15.3905094,66.9360888 C12.9552195,66.9360888 12.6093795,67.7862788 12.6093795,70.9708888 C12.6093795,74.0978588 12.9263995,75.0345088 15.3905094,75.0345088 L15.3905094,75.0345088 Z M15.4049194,73.5935088 C14.6123694,73.5935088 14.5114994,73.1323888 14.5114994,70.9708888 C14.5114994,68.8093888 14.6123694,68.3770888 15.4049194,68.3770888 C16.1686494,68.3770888 16.2695194,68.7373388 16.2695194,70.9708888 C16.2695194,73.1323888 16.1686494,73.5935088 15.4049194,73.5935088 L15.4049194,73.5935088 Z M22.4514094,75.0345088 C24.8290593,75.0345088 25.2181293,74.1122688 25.2181293,70.9708888 C25.2181293,67.8727388 24.8434693,66.9360888 22.4514094,66.9360888 C20.0161194,66.9360888 19.6702794,67.7862788 19.6702794,70.9708888 C19.6702794,74.0978588 19.9872994,75.0345088 22.4514094,75.0345088 L22.4514094,75.0345088 Z M22.4658193,73.5935088 C21.6732694,73.5935088 21.5723994,73.1323888 21.5723994,70.9708888 C21.5723994,68.8093888 21.6732694,68.3770888 22.4658193,68.3770888 C23.2295493,68.3770888 23.3304193,68.7373388 23.3304193,70.9708888 C23.3304193,73.1323888 23.2295493,73.5935088 22.4658193,73.5935088 L22.4658193,73.5935088 Z M29.5123093,75.0345088 C31.8899593,75.0345088 32.2790292,74.1122688 32.2790292,70.9708888 C32.2790292,67.8727388 31.9043692,66.9360888 29.5123093,66.9360888 C27.0770193,66.9360888 26.7311793,67.7862788 26.7311793,70.9708888 C26.7311793,74.0978588 27.0481993,75.0345088 29.5123093,75.0345088 L29.5123093,75.0345088 Z M29.5267193,73.5935088 C28.7341693,73.5935088 28.6332993,73.1323888 28.6332993,70.9708888 C28.6332993,68.8093888 28.7341693,68.3770888 29.5267193,68.3770888 C30.2904493,68.3770888 30.3913193,68.7373388 30.3913193,70.9708888 C30.3913193,73.1323888 30.2904493,73.5935088 29.5267193,73.5935088 L29.5267193,73.5935088 Z M36.5732092,75.0345088 C38.9508592,75.0345088 39.3399292,74.1122688 39.3399292,70.9708888 C39.3399292,67.8727388 38.9652692,66.9360888 36.5732092,66.9360888 C34.1379192,66.9360888 33.7920792,67.7862788 33.7920792,70.9708888 C33.7920792,74.0978588 34.1090992,75.0345088 36.5732092,75.0345088 L36.5732092,75.0345088 Z M36.5876192,73.5935088 C35.7950692,73.5935088 35.6941992,73.1323888 35.6941992,70.9708888 C35.6941992,68.8093888 35.7950692,68.3770888 36.5876192,68.3770888 C37.3513492,68.3770888 37.4522192,68.7373388 37.4522192,70.9708888 C37.4522192,73.1323888 37.3513492,73.5935088 36.5876192,73.5935088 L36.5876192,73.5935088 Z M49.1099091,75.0345088 C51.487559,75.0345088 51.876629,74.1122688 51.876629,70.9708888 C51.876629,67.8727388 51.501969,66.9360888 49.1099091,66.9360888 C46.6746191,66.9360888 46.3287791,67.7862788 46.3287791,70.9708888 C46.3287791,74.0978588 46.6457991,75.0345088 49.1099091,75.0345088 L49.1099091,75.0345088 Z M49.1243191,73.5935088 C48.3317691,73.5935088 48.2308991,73.1323888 48.2308991,70.9708888 C48.2308991,68.8093888 48.3317691,68.3770888 49.1243191,68.3770888 C49.8880491,68.3770888 49.9889191,68.7373388 49.9889191,70.9708888 C49.9889191,73.1323888 49.8880491,73.5935088 49.1243191,73.5935088 L49.1243191,73.5935088 Z M56.170809,75.0345088 C58.548459,75.0345088 58.937529,74.1122688 58.937529,70.9708888 C58.937529,67.8727388 58.562869,66.9360888 56.170809,66.9360888 C53.735519,66.9360888 53.389679,67.7862788 53.389679,70.9708888 C53.389679,74.0978588 53.706699,75.0345088 56.170809,75.0345088 L56.170809,75.0345088 Z M56.185219,73.5935088 C55.392669,73.5935088 55.291799,73.1323888 55.291799,70.9708888 C55.291799,68.8093888 55.392669,68.3770888 56.185219,68.3770888 C56.948949,68.3770888 57.049819,68.7373388 57.049819,70.9708888 C57.049819,73.1323888 56.948949,73.5935088 56.185219,73.5935088 L56.185219,73.5935088 Z M63.2317089,75.0345088 C65.6093589,75.0345088 65.9984289,74.1122688 65.9984289,70.9708888 C65.9984289,67.8727388 65.6237689,66.9360888 63.2317089,66.9360888 C60.7964189,66.9360888 60.4505789,67.7862788 60.4505789,70.9708888 C60.4505789,74.0978588 60.7675989,75.0345088 63.2317089,75.0345088 L63.2317089,75.0345088 Z M63.2461189,73.5935088 C62.4535689,73.5935088 62.3526989,73.1323888 62.3526989,70.9708888 C62.3526989,68.8093888 62.4535689,68.3770888 63.2461189,68.3770888 C64.0098489,68.3770888 64.1107189,68.7373388 64.1107189,70.9708888 C64.1107189,73.1323888 64.0098489,73.5935088 63.2461189,73.5935088 L63.2461189,73.5935088 Z M70.2926088,75.0345088 C72.6702588,75.0345088 73.0593288,74.1122688 73.0593288,70.9708888 C73.0593288,67.8727388 72.6846688,66.9360888 70.2926088,66.9360888 C67.8573189,66.9360888 67.5114789,67.7862788 67.5114789,70.9708888 C67.5114789,74.0978588 67.8284989,75.0345088 70.2926088,75.0345088 L70.2926088,75.0345088 Z M70.3070188,73.5935088 C69.5144689,73.5935088 69.4135989,73.1323888 69.4135989,70.9708888 C69.4135989,68.8093888 69.5144689,68.3770888 70.3070188,68.3770888 C71.0707488,68.3770888 71.1716188,68.7373388 71.1716188,70.9708888 C71.1716188,73.1323888 71.0707488,73.5935088 70.3070188,73.5935088 L70.3070188,73.5935088 Z M82.8293087,75.0345088 C85.2069587,75.0345088 85.5960287,74.1122688 85.5960287,70.9708888 C85.5960287,67.8727388 85.2213687,66.9360888 82.8293087,66.9360888 C80.3940187,66.9360888 80.0481787,67.7862788 80.0481787,70.9708888 C80.0481787,74.0978588 80.3651987,75.0345088 82.8293087,75.0345088 L82.8293087,75.0345088 Z M82.8437187,73.5935088 C82.0511687,73.5935088 81.9502987,73.1323888 81.9502987,70.9708888 C81.9502987,68.8093888 82.0511687,68.3770888 82.8437187,68.3770888 C83.6074487,68.3770888 83.7083187,68.7373388 83.7083187,70.9708888 C83.7083187,73.1323888 83.6074487,73.5935088 82.8437187,73.5935088 L82.8437187,73.5935088 Z M89.8902086,75.0345088 C92.2678586,75.0345088 92.6569286,74.1122688 92.6569286,70.9708888 C92.6569286,67.8727388 92.2822686,66.9360888 89.8902086,66.9360888 C87.4549187,66.9360888 87.1090787,67.7862788 87.1090787,70.9708888 C87.1090787,74.0978588 87.4260987,75.0345088 89.8902086,75.0345088 L89.8902086,75.0345088 Z M89.9046186,73.5935088 C89.1120686,73.5935088 89.0111986,73.1323888 89.0111986,70.9708888 C89.0111986,68.8093888 89.1120686,68.3770888 89.9046186,68.3770888 C90.6683486,68.3770888 90.7692186,68.7373388 90.7692186,70.9708888 C90.7692186,73.1323888 90.6683486,73.5935088 89.9046186,73.5935088 L89.9046186,73.5935088 Z M96.9511086,75.0345088 C99.3287585,75.0345088 99.7178285,74.1122688 99.7178285,70.9708888 C99.7178285,67.8727388 99.3431685,66.9360888 96.9511086,66.9360888 C94.5158186,66.9360888 94.1699786,67.7862788 94.1699786,70.9708888 C94.1699786,74.0978588 94.4869986,75.0345088 96.9511086,75.0345088 L96.9511086,75.0345088 Z M96.9655186,73.5935088 C96.1729686,73.5935088 96.0720986,73.1323888 96.0720986,70.9708888 C96.0720986,68.8093888 96.1729686,68.3770888 96.9655186,68.3770888 C97.7292486,68.3770888 97.8301186,68.7373388 97.8301186,70.9708888 C97.8301186,73.1323888 97.7292486,73.5935088 96.9655186,73.5935088 L96.9655186,73.5935088 Z M104.012008,75.0345088 C106.389658,75.0345088 106.778728,74.1122688 106.778728,70.9708888 C106.778728,67.8727388 106.404068,66.9360888 104.012008,66.9360888 C101.576719,66.9360888 101.230879,67.7862788 101.230879,70.9708888 C101.230879,74.0978588 101.547899,75.0345088 104.012008,75.0345088 L104.012008,75.0345088 Z M104.026418,73.5935088 C103.233868,73.5935088 103.132998,73.1323888 103.132998,70.9708888 C103.132998,68.8093888 103.233868,68.3770888 104.026418,68.3770888 C104.790148,68.3770888 104.891018,68.7373388 104.891018,70.9708888 C104.891018,73.1323888 104.790148,73.5935088 104.026418,73.5935088 L104.026418,73.5935088 Z M116.548708,75.0345088 C118.926358,75.0345088 119.315428,74.1122688 119.315428,70.9708888 C119.315428,67.8727388 118.940768,66.9360888 116.548708,66.9360888 C114.113418,66.9360888 113.767578,67.7862788 113.767578,70.9708888 C113.767578,74.0978588 114.084598,75.0345088 116.548708,75.0345088 L116.548708,75.0345088 Z M116.563118,73.5935088 C115.770568,73.5935088 115.669698,73.1323888 115.669698,70.9708888 C115.669698,68.8093888 115.770568,68.3770888 116.563118,68.3770888 C117.326848,68.3770888 117.427718,68.7373388 117.427718,70.9708888 C117.427718,73.1323888 117.326848,73.5935088 116.563118,73.5935088 L116.563118,73.5935088 Z M123.609608,75.0345088 C125.987258,75.0345088 126.376328,74.1122688 126.376328,70.9708888 C126.376328,67.8727388 126.001668,66.9360888 123.609608,66.9360888 C121.174318,66.9360888 120.828478,67.7862788 120.828478,70.9708888 C120.828478,74.0978588 121.145498,75.0345088 123.609608,75.0345088 L123.609608,75.0345088 Z M123.624018,73.5935088 C122.831468,73.5935088 122.730598,73.1323888 122.730598,70.9708888 C122.730598,68.8093888 122.831468,68.3770888 123.624018,68.3770888 C124.387748,68.3770888 124.488618,68.7373388 124.488618,70.9708888 C124.488618,73.1323888 124.387748,73.5935088 123.624018,73.5935088 L123.624018,73.5935088 Z M130.670508,75.0345088 C133.048158,75.0345088 133.437228,74.1122688 133.437228,70.9708888 C133.437228,67.8727388 133.062568,66.9360888 130.670508,66.9360888 C128.235218,66.9360888 127.889378,67.7862788 127.889378,70.9708888 C127.889378,74.0978588 128.206398,75.0345088 130.670508,75.0345088 L130.670508,75.0345088 Z M130.684918,73.5935088 C129.892368,73.5935088 129.791498,73.1323888 129.791498,70.9708888 C129.791498,68.8093888 129.892368,68.3770888 130.684918,68.3770888 C131.448648,68.3770888 131.549518,68.7373388 131.549518,70.9708888 C131.549518,73.1323888 131.448648,73.5935088 130.684918,73.5935088 L130.684918,73.5935088 Z M134.359468,68.5500088 L135.944568,68.5500088 L135.944568,74.9048188 L137.861098,74.9048188 L137.861098,67.0801888 L134.359468,67.0801888 L134.359468,68.5500088 Z" id="0000--0000--0000--0001" fill="#8FC3DC"></path>
                            <g id="Group-23" transform="translate(108.676558, 23.369569)">
                                <g id="Group-11" transform="translate(14.191507, 0.000000)" fill="#8FC3DC" opacity="0.566522854">
                                    <path d="M6.16623665,0.0331839133 C4.02309389,0.0331839133 2.07313583,0.804709896 0.591046966,2.0656986 C2.31461671,3.52855611 3.40429915,5.65509188 3.40429915,8.02774168 C3.40429915,10.4003915 2.31461671,12.5269273 0.591046966,13.9897848 C2.07313583,15.2507735 4.02309389,16.0222994 6.16623665,16.0222994 C10.7996509,16.0222994 14.557697,12.4439675 14.557697,8.02774168 C14.557697,3.61151589 10.7996509,0.0331839133 6.16623665,0.0331839133" id="Fill-3"></path>
                                </g>
                                <g id="Group-20" fill="#8FC3DC" opacity="0.566522854">
                                    <path d="M11.9671884,8.02774168 C11.9671884,5.65509188 13.0598894,3.52855611 14.7804406,2.0656986 C13.2983517,0.804709896 11.3483937,0.0331839133 9.20525093,0.0331839133 C4.57183665,0.0331839133 0.816809057,3.61151589 0.816809057,8.02774168 C0.816809057,12.4439675 4.57183665,16.0222994 9.20525093,16.0222994 C11.3483937,16.0222994 13.2983517,15.2507735 14.7804406,13.9897848 C13.0598894,12.5269273 11.9671884,10.4003915 11.9671884,8.02774168" id="Fill-12"></path>
                                </g>
                                <path d="M17.5964095,8.02774168 C17.5964095,5.65509188 16.506727,3.52855611 14.7831573,2.0656986 C13.0595875,3.52855611 11.9668866,5.65509188 11.9668866,8.02774168 C11.9668866,10.4003915 13.0595875,12.5269273 14.7831573,13.9897848 C16.506727,12.5269273 17.5964095,10.4003915 17.5964095,8.02774168" id="Fill-21" fill="#75ACC6"></path>
                            </g>
                            <g id="Group-36" transform="translate(102.200606, 43.561967)" fill="#8FC3DC">
                                <polygon id="Fill-28" points="12.5834919 11.193776 15.4051933 11.193776 17.1726327 0.624699639 14.3481124 0.624699639"></polygon>
                                <path d="M22.8653661,4.86836908 C21.8787572,4.37890636 21.2726974,4.05259788 21.2811541,3.55760451 C21.2811541,3.11791766 21.7913718,2.64781222 22.8963738,2.64781222 C23.8209673,2.63398559 24.4890425,2.83861972 25.0105357,3.05431515 L25.2642352,3.1759895 L25.6476032,0.886299489 C25.0866456,0.670604053 24.2099731,0.441081986 23.1162466,0.441081986 C20.3255529,0.441081986 18.3607917,1.87352091 18.3438784,3.9281582 C18.3269651,5.44632224 19.747682,6.29527735 20.8188573,6.80133203 C21.9154027,7.31844801 22.2846763,7.64752181 22.2818574,8.1120966 C22.2734007,8.82002008 21.402366,9.14356324 20.5905278,9.14356324 C19.4629748,9.14356324 18.8625528,8.98317432 17.9351404,8.58773269 L17.5686857,8.42181312 L17.1740422,10.7861669 C17.8336607,11.0820568 19.0542368,11.3364668 20.3199151,11.3502935 C23.2881985,11.3502935 25.2134953,9.9344465 25.2360463,7.73877758 C25.2473219,6.53862605 24.4946802,5.62330311 22.8653661,4.86836908" id="Fill-30"></path>
                                <path d="M32.8862118,0.635207879 L30.7043967,0.635207879 C30.0278649,0.635207879 29.5232849,0.823250054 29.2273022,1.51181625 L25.0328049,11.1959883 L27.9982694,11.1959883 C27.9982694,11.1959883 28.4831172,9.89351968 28.5930536,9.60869109 C28.9172251,9.60869109 31.7953042,9.61422174 32.2068611,9.61422174 C32.2914276,9.98201011 32.5507648,11.1959883 32.5507648,11.1959883 L35.1723256,11.1959883 L32.8862118,0.635207879 Z M29.4048918,7.44620607 C29.6388591,6.83783433 30.529626,4.49283779 30.529626,4.49283779 C30.5127127,4.52049106 30.7607743,3.88170073 30.9045373,3.48349377 L31.0962214,4.39605138 C31.0962214,4.39605138 31.6346279,6.91802879 31.7473832,7.44620607 L29.4048918,7.44620607 Z" id="Fill-32"></path>
                                <path d="M10.2150667,0.632719085 L7.4497429,7.83915891 L7.15657911,6.3763014 L6.16715132,1.51762344 C5.99519948,0.848414521 5.49907615,0.649311042 4.88737863,0.627188433 L0.334883251,0.627188433 L0.298237778,0.845649195 C1.40605863,1.11941648 2.39548642,1.51485811 3.26370226,2.00432083 L5.77250776,11.1852035 L8.7605233,11.1824382 L13.2059011,0.632719085 L10.2150667,0.632719085" id="Fill-34"></path>
                            </g>
                        </g>
                    </g>
                </g>
                <g id="Group-2" transform="translate(0.997033, 0.000000)">
                    <path d="M143.746278,94.9767202 L10.4476023,94.9767202 C4.67619083,94.9767202 0,90.4187036 0,84.7931443 L0,10.8420508 C0,5.21928604 4.67619083,0.658474896 10.4476023,0.658474896 L143.746278,0.658474896 C149.514823,0.658474896 154.19388,5.21928604 154.19388,10.8420508 L154.19388,84.7931443 C154.19388,90.4187036 149.514823,94.9767202 143.746278,94.9767202" id="Fill-73" fill="#FFFFFF"></path>
                    <path d="M143.746278,94.9767202 L10.4476023,94.9767202 C4.67619083,94.9767202 0,90.4187036 0,84.7931443 L0,10.8420508 C0,5.21928604 4.67619083,0.658474896 10.4476023,0.658474896 L143.746278,0.658474896 C149.514823,0.658474896 154.19388,5.21928604 154.19388,10.8420508 L154.19388,84.7931443 C154.19388,90.4187036 149.514823,94.9767202 143.746278,94.9767202 L143.746278,94.9767202 Z" id="Stroke-75" stroke="#8FC3DC" stroke-width="2"></path>
                    <path d="M128.430965,35.3625589 L128.430965,43.5228337 L129.964847,43.5228337 C130.607071,40.1804745 130.776228,37.9084528 130.770494,35.1445789 C129.996385,35.2368012 129.216542,35.3094612 128.430965,35.3625589" id="Fill-105" fill="#ACC9D7"></path>
                    <path d="M128.430965,35.3625589 L128.430965,43.5228337 L129.964847,43.5228337 C130.607071,40.1804745 130.776228,37.9084528 130.770494,35.1445789 C129.996385,35.2368012 129.216542,35.3094612 128.430965,35.3625589 L128.430965,35.3625589 Z" id="Stroke-107" stroke="#8FC3DC" stroke-linecap="round" stroke-linejoin="round"></path>
                    <polygon id="Fill-109" fill="#FFFFFF" points="137.678412 75.8651888 124.965824 69.5186189 123.956616 61.8501962 105.939949 61.8501962 105.28339 69.5381812 93.2474311 75.8651888"></polygon>
                    <polygon id="Stroke-111" stroke="#8FC3DC" stroke-linecap="round" stroke-linejoin="round" points="137.678412 75.8651888 124.965824 69.5186189 123.956616 61.8501962 105.939949 61.8501962 105.28339 69.5381812 93.2474311 75.8651888"></polygon>
                    <path d="M114.948856,64.3513763 C111.313411,64.3513763 107.784048,63.4598943 105.263894,61.9032939 C102.428362,60.1538651 100.99196,57.7169611 100.99196,54.6652419 L100.99196,30.8523302 L114.948856,30.3409157 L128.905751,30.8523302 L128.905751,54.6652419 C128.905751,57.7169611 127.46935,60.1538651 124.636685,61.9032939 C122.113663,63.4598943 118.5843,64.3513763 114.948856,64.3513763" id="Fill-113" fill="#FFFFFF"></path>
                    <path d="M114.948856,64.3513763 C111.313411,64.3513763 107.784048,63.4598943 105.263894,61.9032939 C102.428362,60.1538651 100.99196,57.7169611 100.99196,54.6652419 L100.99196,30.8523302 L114.948856,30.3409157 L128.905751,30.8523302 L128.905751,54.6652419 C128.905751,57.7169611 127.46935,60.1538651 124.636685,61.9032939 C122.113663,63.4598943 118.5843,64.3513763 114.948856,64.3513763 L114.948856,64.3513763 Z" id="Stroke-115" stroke="#8FC3DC" stroke-linecap="round" stroke-linejoin="round"></path>
                    <path d="M111.360718,45.7954144 C111.549945,47.357604 110.274098,47.71252 108.671406,47.8969646 C107.068714,48.0786145 105.746995,48.0199276 105.557769,46.457738 C105.371409,44.8955484 106.51537,43.4814734 108.118062,43.2998234 C109.720754,43.1153789 111.171491,44.2332248 111.360718,45.7954144" id="Fill-117" fill="#FFFFFF"></path>
                    <path d="M111.360718,45.7954144 C111.549945,47.357604 110.274098,47.71252 108.671406,47.8969646 C107.068714,48.0786145 105.746995,48.0199276 105.557769,46.457738 C105.371409,44.8955484 106.51537,43.4814734 108.118062,43.2998234 C109.720754,43.1153789 111.171491,44.2332248 111.360718,45.7954144 L111.360718,45.7954144 Z" id="Stroke-119" stroke="#8FC3DC" stroke-linecap="round" stroke-linejoin="round"></path>
                    <path d="M118.678053,45.7954144 C118.488827,47.357604 119.764673,47.71252 121.367365,47.8969646 C122.970057,48.0786145 124.291776,48.0199276 124.481003,46.457738 C124.667362,44.8955484 123.523401,43.4814734 121.920709,43.2998234 C120.318017,43.1153789 118.86728,44.2332248 118.678053,45.7954144" id="Fill-121" fill="#FFFFFF"></path>
                    <path d="M118.678053,45.7954144 C118.488827,47.357604 119.764673,47.71252 121.367365,47.8969646 C122.970057,48.0786145 124.291776,48.0199276 124.481003,46.457738 C124.667362,44.8955484 123.523401,43.4814734 121.920709,43.2998234 C120.318017,43.1153789 118.86728,44.2332248 118.678053,45.7954144 L118.678053,45.7954144 Z" id="Stroke-123" stroke="#8FC3DC" stroke-linecap="round" stroke-linejoin="round"></path>
                    <path d="M130.804899,31.0432024 C129.583527,27.1363311 126.022626,24.3612787 121.842438,24.0566657 C119.451302,23.880605 117.037229,23.7911773 114.60022,23.7911773 C111.40057,23.7911773 108.235325,23.9448811 105.11882,24.2439049 C101.245409,24.6155887 98.3095295,27.7790925 98.3095295,31.5713846 C98.3095295,35.3888282 98.6363755,39.2006826 99.2872003,42.9650286 L99.3617441,43.38981 C99.3674783,43.38981 99.3732124,43.3870154 99.3789465,43.3870154 C99.3818136,43.3842208 99.4592245,43.3842208 99.4592245,43.3842208 L100.973037,43.3842208 L100.973037,41.1597075 C102.968518,38.0632745 104.361914,34.5616223 104.995536,30.8112494 C110.953307,34.3520262 117.954692,36.3920949 125.446345,36.3920949 C127.699862,36.3920949 129.910373,36.2076503 132.060675,35.8527343 C131.722361,34.2486254 131.352509,32.7982204 130.804899,31.0432024" id="Fill-125" fill="#8FC3DC"></path>
                    <path d="M130.804899,31.0432024 C129.583527,27.1363311 126.022626,24.3612787 121.842438,24.0566657 C119.451302,23.880605 117.037229,23.7911773 114.60022,23.7911773 C111.40057,23.7911773 108.235325,23.9448811 105.11882,24.2439049 C101.245409,24.6155887 98.3095295,27.7790925 98.3095295,31.5713846 C98.3095295,35.3888282 98.6363755,39.2006826 99.2872003,42.9650286 L99.3617441,43.38981 C99.3674783,43.38981 99.3732124,43.3870154 99.3789465,43.3870154 C99.3818136,43.3842208 99.4592245,43.3842208 99.4592245,43.3842208 L100.973037,43.3842208 L100.973037,41.1597075 C102.968518,38.0632745 104.361914,34.5616223 104.995536,30.8112494 C110.953307,34.3520262 117.954692,36.3920949 125.446345,36.3920949 C127.699862,36.3920949 129.910373,36.2076503 132.060675,35.8527343 C131.722361,34.2486254 131.352509,32.7982204 130.804899,31.0432024 L130.804899,31.0432024 Z" id="Stroke-127" stroke="#8FC3DC" stroke-linecap="round" stroke-linejoin="round"></path>
                    <path d="M100.043247,43.5300997 L99.2433341,43.5300997 C99.034038,43.5300997 98.8620139,43.6977766 98.8620139,43.9017835 L98.8620139,48.4793623 C98.8620139,49.2199352 99.3580169,49.8515181 100.043247,50.0750873 L100.986513,50.0750873 L100.986513,43.5300997 L100.043247,43.5300997 Z" id="Fill-129" fill="#FFFFFF"></path>
                    <path d="M100.043247,43.5300997 L99.2433341,43.5300997 C99.034038,43.5300997 98.8620139,43.6977766 98.8620139,43.9017835 L98.8620139,48.4793623 C98.8620139,49.2199352 99.3580169,49.8515181 100.043247,50.0750873 L100.986513,50.0750873 L100.986513,43.5300997 L100.043247,43.5300997 L100.043247,43.5300997 Z" id="Stroke-131" stroke="#8FC3DC" stroke-linecap="round" stroke-linejoin="round"></path>
                    <path d="M129.848731,43.5300997 L130.648643,43.5300997 C130.857939,43.5300997 131.029964,43.6977766 131.029964,43.9017835 L131.029964,48.4793623 C131.029964,49.2199352 130.53396,49.8515181 129.848731,50.0750873 L128.905465,50.0750873 L128.905465,43.5300997 L129.848731,43.5300997 Z" id="Fill-133" fill="#FFFFFF"></path>
                    <path d="M129.848731,43.5300997 L130.648643,43.5300997 C130.857939,43.5300997 131.029964,43.6977766 131.029964,43.9017835 L131.029964,48.4793623 C131.029964,49.2199352 130.53396,49.8515181 129.848731,50.0750873 L128.905465,50.0750873 L128.905465,43.5300997 L129.848731,43.5300997 L129.848731,43.5300997 Z" id="Stroke-135" stroke="#8FC3DC" stroke-linecap="round" stroke-linejoin="round"></path>
                    <path d="M104.544259,42.2034961 C105.530531,41.0856502 106.995604,40.5099596 109.991692,40.5099596" id="Stroke-137" stroke="#8FC3DC" stroke-width="2" stroke-linecap="round" stroke-linejoin="round"></path>
                    <path d="M125.313313,42.2034961 C124.327041,41.0856502 122.861968,40.5099596 119.86588,40.5099596" id="Stroke-139" stroke="#8FC3DC" stroke-width="2" stroke-linecap="round" stroke-linejoin="round"></path>
                    <path d="M121.59501,55.825007 C121.59501,57.9992172 118.618992,59.762619 114.949142,59.762619 C111.279293,59.762619 108.303275,57.9992172 108.303275,55.825007 L121.59501,55.825007 Z" id="Fill-141" fill="#8FC3DC"></path>
                    <path d="M112.53421,51.886836 C113.22804,51.886836 113.136294,50.2128618 115.200584,50.2128618 C117.167394,50.2128618 116.852017,51.886836 117.838289,51.886836" id="Stroke-143" stroke="#8FC3DC" stroke-linecap="round" stroke-linejoin="round"></path>
                    <path d="M122.191647,45.6241045 C122.191647,45.953869 121.919276,46.2193574 121.580962,46.2193574 C121.242647,46.2193574 120.970276,45.953869 120.970276,45.6241045 C120.970276,45.2943399 121.242647,45.0288515 121.580962,45.0288515 C121.919276,45.0288515 122.191647,45.2943399 122.191647,45.6241045" id="Fill-145" fill="#ACC9D7"></path>
                    <path d="M122.191647,45.6241045 C122.191647,45.953869 121.919276,46.2193574 121.580962,46.2193574 C121.242647,46.2193574 120.970276,45.953869 120.970276,45.6241045 C120.970276,45.2943399 121.242647,45.0288515 121.580962,45.0288515 C121.919276,45.0288515 122.191647,45.2943399 122.191647,45.6241045 L122.191647,45.6241045 Z" id="Stroke-147" stroke="#8FC3DC" stroke-width="0.25"></path>
                    <path d="M109.069929,45.6241045 C109.069929,45.953869 108.797558,46.2193574 108.459243,46.2193574 C108.120929,46.2193574 107.848557,45.953869 107.848557,45.6241045 C107.848557,45.2943399 108.120929,45.0288515 108.459243,45.0288515 C108.797558,45.0288515 109.069929,45.2943399 109.069929,45.6241045" id="Fill-149" fill="#ACC9D7"></path>
                    <path d="M109.069929,45.6241045 C109.069929,45.953869 108.797558,46.2193574 108.459243,46.2193574 C108.120929,46.2193574 107.848557,45.953869 107.848557,45.6241045 C107.848557,45.2943399 108.120929,45.0288515 108.459243,45.0288515 C108.797558,45.0288515 109.069929,45.2943399 109.069929,45.6241045 L109.069929,45.6241045 Z" id="Stroke-151" stroke="#8FC3DC" stroke-width="0.25"></path>
                    <path d="M120.400302,57.170055 C120.400302,57.170055 118.040704,57.5557118 114.950003,57.5557118 C111.859301,57.5557118 109.516905,56.9967889 109.516905,56.9967889 L109.353482,56.5748021 L120.543656,56.5748021 L120.400302,57.170055 Z" id="Fill-153" fill="#FFFFFF"></path>
                    <path d="M139.298306,76.0418084 L128.194145,70.242983 C128.194145,70.242983 124.897015,74.1582382 115.398412,74.1582382 C105.89981,74.1582382 102.433523,70.242983 102.433523,70.242983 L91.4297088,76.0418084 L139.298306,76.0418084 Z" id="Fill-155" fill="#8FC3DC"></path>
                    <path d="M139.298306,76.0418084 L128.194145,70.242983 C128.194145,70.242983 124.897015,74.1582382 115.398412,74.1582382 C105.89981,74.1582382 102.433523,70.242983 102.433523,70.242983 L91.4297088,76.0418084 L139.298306,76.0418084 L139.298306,76.0418084 Z" id="Stroke-157" stroke="#8FC3DC" stroke-linecap="round" stroke-linejoin="round"></path>
                    <path d="M75.2614422,74.2124537 C80.1497962,73.1141701 79.0373731,66.2617749 81.1790742,64.59339 C83.3207753,62.925005 80.964044,72.5245064 83.2347632,72.1109034 C85.5054825,71.6945059 86.0530929,63.802514 88.4126913,62.7936581 C90.7751568,61.7848022 86.755525,73.1868301 90.6031326,71.9432266 C94.4536073,70.699623 95.5602963,69.0955142 98.0087739,64.3446693 C99.4451759,61.5528492 96.6354475,59.4596828 93.8945287,64.2021439 C90.4798486,70.1099593 98.6137256,76.0792563 109.542996,65.8509666" id="Stroke-159" stroke="#8FC3DC" stroke-width="2" stroke-linecap="round" stroke-linejoin="round"></path>
                    <path d="M15.4733493,38.2324137 L79.4061386,38.2324137" id="Stroke-161" stroke="#8FC3DC" stroke-width="3"></path>
                    <path d="M15.4733493,46.7285056 L79.4061386,46.7285056" id="Stroke-163" stroke="#8FC3DC" stroke-width="3"></path>
                    <path d="M15.4733493,54.162586 L69.6495001,54.162586" id="Stroke-165" stroke="#8FC3DC" stroke-width="3"></path>
                    <path d="M16.3374141,61.8526732 L16.3374141,76.0439581" id="Stroke-167" stroke="#8FC3DC" stroke-width="2"></path>
                    <path d="M21.7832188,61.8493578 L21.7832188,76.0404111" id="Stroke-169" stroke="#8FC3DC" stroke-width="2"></path>
                    <path d="M29.4073453,61.8493578 L29.4073453,76.0404111" id="Stroke-171" stroke="#8FC3DC" stroke-width="2"></path>
                    <path d="M32.6748282,61.8493578 L32.6748282,76.0404111" id="Stroke-173" stroke="#8FC3DC" stroke-width="2"></path>
                    <path d="M39.2097938,61.8493578 L39.2097938,76.0404111" id="Stroke-175" stroke="#8FC3DC" stroke-width="2"></path>
                    <path d="M41.3881157,61.8493578 L41.3881157,76.0404111" id="Stroke-177" stroke="#8FC3DC" stroke-width="2"></path>
                    <path d="M46.8339204,61.8493578 L46.8339204,76.0404111" id="Stroke-179" stroke="#8FC3DC" stroke-width="2"></path>
                    <path d="M46.8339204,61.8493578 L46.8339204,76.0404111" id="Stroke-181" stroke="#8FC3DC" stroke-width="2"></path>
                    <path d="M49.0122422,61.8493578 L49.0122422,76.0404111" id="Stroke-183" stroke="#8FC3DC" stroke-width="2"></path>
                    <path d="M51.1905641,61.8493578 L51.1905641,76.0404111" id="Stroke-185" stroke="#8FC3DC" stroke-width="2"></path>
                    <path d="M54.4580469,61.8493578 L54.4580469,76.0404111" id="Stroke-187" stroke="#8FC3DC" stroke-width="2"></path>
                    <path d="M59.9038516,61.8493578 L59.9038516,76.0404111" id="Stroke-189" stroke="#8FC3DC" stroke-width="2"></path>
                    <path d="M60.9930126,61.8493578 L60.9930126,76.0404111" id="Stroke-191" stroke="#8FC3DC" stroke-width="2"></path>
                    <path d="M65.3496563,61.8493578 L65.3496563,76.0404111" id="Stroke-193" stroke="#8FC3DC" stroke-width="2"></path>
                    <path d="M67.5279782,61.8493578 L67.5279782,76.0404111" id="Stroke-195" stroke="#8FC3DC" stroke-width="2"></path>
                    <path d="M70.795461,61.8493578 L70.795461,76.0404111" id="Stroke-197" stroke="#8FC3DC" stroke-width="2"></path>
                    <polygon id="Fill-199" fill="#8FC3DC" points="16.382814 33.9309514 21.9181844 33.9309514 21.9181844 13.3773572 16.382814 13.3773572"></polygon>
                    <path d="M31.8771934,16.4609531 L31.8771934,30.6335416 L35.3847194,30.6335416 C37.9284818,30.6335416 38.5554655,29.2489488 38.5554655,23.7328496 C38.5554655,17.2330585 37.8926541,16.4609531 35.3847194,16.4609531 L31.8771934,16.4609531 Z M26.3059954,13.2871545 L35.2342433,13.3168509 C41.507663,13.3502593 44.0550082,14.9501507 44.0550082,23.7328496 C44.0550082,32.0812393 41.9877534,33.9335498 35.6068507,33.9335498 L26.3059954,33.9335498 L26.3059954,13.2871545 Z" id="Fill-201" fill="#8FC3DC"></path>
                </g>
                <g id="Group-2-Copy" transform="translate(185.448071, 0.000000)">
                    <path d="M143.746278,94.9767202 L10.4476023,94.9767202 C4.67619083,94.9767202 0,90.4187036 0,84.7931443 L0,10.8420508 C0,5.21928604 4.67619083,0.658474896 10.4476023,0.658474896 L143.746278,0.658474896 C149.514823,0.658474896 154.19388,5.21928604 154.19388,10.8420508 L154.19388,84.7931443 C154.19388,90.4187036 149.514823,94.9767202 143.746278,94.9767202" id="Fill-73" fill="#FFFFFF"></path>
                    <path d="M16.5739775,58.2427184 L16.5739775,53.304851 L17.6209946,53.304851 L17.6209946,58.2427184 L16.5739775,58.2427184 Z M22.9607815,55.7265001 C22.9607815,56.5393496 22.7294268,57.1619245 22.2667105,57.5942434 C21.8039942,58.0265623 21.1358239,58.2427184 20.2621795,58.2427184 L18.8639051,58.2427184 L18.8639051,53.304851 L20.4141658,53.304851 C21.2202604,53.304851 21.8462127,53.5176297 22.2920416,53.9431936 C22.7378704,54.3687575 22.9607815,54.9631871 22.9607815,55.7265001 L22.9607815,55.7265001 Z M21.8732348,55.7535199 C21.8732348,54.6929876 21.4048963,54.1627295 20.4682054,54.1627295 L19.9109222,54.1627295 L19.9109222,57.378085 L20.3601263,57.378085 C21.3688703,57.378085 21.8732348,56.8365687 21.8732348,55.7535199 L21.8732348,55.7535199 Z M23.6599187,56.7498748 L25.9701111,55.8008045 L23.6599187,54.7301451 L23.6599187,53.9195513 L27.0137507,55.5947786 L27.0137507,56.0777574 L23.6599187,57.5570912 L23.6599187,56.7498748 Z M27.9324237,53.304851 L29.4691745,53.304851 C30.169441,53.304851 30.6777458,53.4044855 30.9941042,53.6037575 C31.3104625,53.8030294 31.4686393,54.1199459 31.4686393,54.5545165 C31.4686393,54.849484 31.3994018,55.091534 31.2609247,55.2806735 C31.1224475,55.469813 30.938377,55.5835201 30.7087076,55.6217984 L30.7087076,55.6555731 C31.0216885,55.7253746 31.2474141,55.855969 31.3858912,56.0473601 C31.5243684,56.2387513 31.5936059,56.4931852 31.5936059,56.8106693 C31.5936059,57.2610015 31.4309258,57.6122553 31.1055608,57.8644413 C30.7801959,58.1166273 30.338314,58.2427184 29.7799022,58.2427184 L27.9324237,58.2427184 L27.9324237,53.304851 Z M28.9794407,55.2604086 L29.5873861,55.2604086 C29.8710954,55.2604086 30.0765564,55.2165019 30.2037752,55.1286871 C30.330994,55.0408723 30.3946025,54.8956424 30.3946025,54.6929929 C30.3946025,54.5038534 30.325365,54.3681929 30.1868878,54.2860073 C30.0484107,54.2038216 29.82944,54.1627295 29.5299691,54.1627295 L28.9794407,54.1627295 L28.9794407,55.2604086 Z M28.9794407,56.0912673 L28.9794407,57.378085 L29.6616906,57.378085 C29.9499031,57.378085 30.1626819,57.3229202 30.3000332,57.2125888 C30.4373845,57.1022574 30.5060591,56.9333854 30.5060591,56.7059676 C30.5060591,56.2961654 30.2133476,56.0912673 29.6279158,56.0912673 L28.9794407,56.0912673 Z M35.4641915,58.2427184 L35.1061792,57.0673574 L33.3059854,57.0673574 L32.9479731,58.2427184 L31.8198967,58.2427184 L33.5626734,53.2845861 L34.8427362,53.2845861 L36.5922679,58.2427184 L35.4641915,58.2427184 Z M34.8562461,56.1892141 C34.5252519,55.1241785 34.3389298,54.5218683 34.2972741,54.3822653 C34.2556184,54.2426623 34.2257843,54.1323326 34.207771,54.0512728 C34.1334662,54.3394854 33.9206875,55.0521253 33.5694284,56.1892141 L34.8562461,56.1892141 Z M39.1726583,54.1053124 C38.7786176,54.1053124 38.4735222,54.2533569 38.2573627,54.5494503 C38.0412033,54.8455437 37.9331252,55.2581543 37.9331252,55.7872946 C37.9331252,56.8883567 38.3462988,57.4388796 39.1726583,57.4388796 C39.519414,57.4388796 39.9393425,57.3521919 40.4324562,57.178814 L40.4324562,58.0569574 C40.0271573,58.2258319 39.5745802,58.3102679 39.0747115,58.3102679 C38.3564317,58.3102679 37.8070347,58.092423 37.4265041,57.6567267 C37.0459734,57.2210303 36.8557109,56.5956409 36.8557109,55.7805397 C36.8557109,55.267161 36.9491534,54.8173985 37.1360413,54.4312387 C37.3229291,54.0450788 37.5914356,53.7489899 37.9415689,53.5429629 C38.2917021,53.336936 38.7020612,53.233924 39.1726583,53.233924 C39.652262,53.233924 40.1341102,53.3498828 40.6182173,53.5818039 L40.2804699,54.4329274 C40.0958337,54.3451126 39.9100744,54.2685573 39.7231866,54.2032591 C39.5362987,54.137961 39.3527911,54.1053124 39.1726583,54.1053124 L39.1726583,54.1053124 Z M45.4547605,58.2427184 L44.2658896,58.2427184 L42.9723169,56.1621943 L42.5298678,56.4796768 L42.5298678,58.2427184 L41.4828507,58.2427184 L41.4828507,53.304851 L42.5298678,53.304851 L42.5298678,55.5643813 L42.9419196,54.9834557 L44.2793995,53.304851 L45.4412506,53.304851 L43.7187387,55.4900769 L45.4547605,58.2427184 Z M50.7877925,56.8714639 C50.7877925,57.3172927 50.6273641,57.6685465 50.3065024,57.9252359 C49.9856407,58.1819252 49.5392557,58.3102679 48.9673338,58.3102679 C48.4404452,58.3102679 47.9743584,58.2111963 47.5690595,58.0130502 L47.5690595,57.0403376 C47.9023053,57.1889472 48.1843216,57.2936479 48.4151168,57.3544427 C48.645912,57.4152375 48.8570021,57.4456345 49.0483932,57.4456345 C49.2780626,57.4456345 49.4542524,57.4017278 49.576968,57.313913 C49.6996835,57.2260982 49.7610403,57.0955039 49.7610403,56.922126 C49.7610403,56.8253046 49.7340208,56.7391798 49.6799809,56.6637492 C49.6259411,56.5883186 49.5465712,56.5157036 49.441869,56.4459021 C49.3371668,56.3761006 49.1238251,56.2646451 48.8018376,56.1115321 C48.500115,55.9696775 48.2738265,55.8334541 48.1229653,55.7028577 C47.972104,55.5722614 47.8516419,55.4202766 47.7615755,55.2468987 C47.6715091,55.0735208 47.6264765,54.8708744 47.6264765,54.6389533 C47.6264765,54.2021311 47.774521,53.858758 48.0706144,53.6088237 C48.3667078,53.3588893 48.775941,53.233924 49.2983263,53.233924 C49.5550157,53.233924 49.7998801,53.264321 50.032927,53.3251158 C50.2659739,53.3859107 50.5097125,53.4714725 50.7641502,53.5818039 L50.4264028,54.3957752 C50.1629584,54.2876955 49.9451135,54.212266 49.7728615,54.1694844 C49.6006094,54.1267028 49.4311745,54.1053124 49.2645516,54.1053124 C49.0664054,54.1053124 48.9144206,54.1514707 48.8085925,54.2437888 C48.7027645,54.3361069 48.6498513,54.456569 48.6498513,54.6051786 C48.6498513,54.6974967 48.6712417,54.7779924 48.7140233,54.846668 C48.7568048,54.9153437 48.8249165,54.9817667 48.9183605,55.045939 C49.0118044,55.1101113 49.2330267,55.2255072 49.5820342,55.3921301 C50.0436246,55.6127929 50.3599782,55.8340152 50.5311045,56.0558038 C50.7022307,56.2775924 50.7877925,56.5494764 50.7877925,56.8714639 L50.7877925,56.8714639 Z M51.6828232,58.2427184 L51.6828232,53.304851 L52.7298402,53.304851 L52.7298402,58.2427184 L51.6828232,58.2427184 Z M58.0696272,55.7265001 C58.0696272,56.5393496 57.8382725,57.1619245 57.3755562,57.5942434 C56.9128399,58.0265623 56.2446696,58.2427184 55.3710252,58.2427184 L53.9727508,58.2427184 L53.9727508,53.304851 L55.5230115,53.304851 C56.3291061,53.304851 56.9550584,53.5176297 57.4008872,53.9431936 C57.8467161,54.3687575 58.0696272,54.9631871 58.0696272,55.7265001 L58.0696272,55.7265001 Z M56.9820804,55.7535199 C56.9820804,54.6929876 56.513742,54.1627295 55.5770511,54.1627295 L55.0197678,54.1627295 L55.0197678,57.378085 L55.4689719,57.378085 C56.477716,57.378085 56.9820804,56.8365687 56.9820804,55.7535199 L56.9820804,55.7535199 Z M61.9368353,58.2427184 L59.0930019,58.2427184 L59.0930019,53.304851 L61.9368353,53.304851 L61.9368353,54.1627295 L60.1400189,54.1627295 L60.1400189,55.2468987 L61.8118687,55.2468987 L61.8118687,56.1047772 L60.1400189,56.1047772 L60.1400189,57.378085 L61.9368353,57.378085 L61.9368353,58.2427184 Z M65.9965594,57.5570912 L62.6427274,56.0777574 L62.6427274,55.5947786 L65.9965594,53.9195513 L65.9965594,54.7301451 L63.686367,55.8008045 L65.9965594,56.7498748 L65.9965594,57.5570912 Z M69.9448269,57.5570912 L66.5909949,56.0777574 L66.5909949,55.5947786 L69.9448269,53.9195513 L69.9448269,54.7301451 L67.6346345,55.8008045 L69.9448269,56.7498748 L69.9448269,57.5570912 Z M73.8930944,57.5570912 L70.5392624,56.0777574 L70.5392624,55.5947786 L73.8930944,53.9195513 L73.8930944,54.7301451 L71.582902,55.8008045 L73.8930944,56.7498748 L73.8930944,57.5570912 Z M77.8413619,57.5570912 L74.4875299,56.0777574 L74.4875299,55.5947786 L77.8413619,53.9195513 L77.8413619,54.7301451 L75.5311695,55.8008045 L77.8413619,56.7498748 L77.8413619,57.5570912 Z M81.7896294,57.5570912 L78.4357974,56.0777574 L78.4357974,55.5947786 L81.7896294,53.9195513 L81.7896294,54.7301451 L79.4794369,55.8008045 L81.7896294,56.7498748 L81.7896294,57.5570912 Z M85.7378969,57.5570912 L82.3840649,56.0777574 L82.3840649,55.5947786 L85.7378969,53.9195513 L85.7378969,54.7301451 L83.4277044,55.8008045 L85.7378969,56.7498748 L85.7378969,57.5570912 Z M89.6861644,57.5570912 L86.3323324,56.0777574 L86.3323324,55.5947786 L89.6861644,53.9195513 L89.6861644,54.7301451 L87.3759719,55.8008045 L89.6861644,56.7498748 L89.6861644,57.5570912 Z M93.6344319,57.5570912 L90.2805999,56.0777574 L90.2805999,55.5947786 L93.6344319,53.9195513 L93.6344319,54.7301451 L91.3242394,55.8008045 L93.6344319,56.7498748 L93.6344319,57.5570912 Z M97.5826994,57.5570912 L94.2288674,56.0777574 L94.2288674,55.5947786 L97.5826994,53.9195513 L97.5826994,54.7301451 L95.2725069,55.8008045 L97.5826994,56.7498748 L97.5826994,57.5570912 Z M101.530967,57.5570912 L98.1771348,56.0777574 L98.1771348,55.5947786 L101.530967,53.9195513 L101.530967,54.7301451 L99.2207744,55.8008045 L101.530967,56.7498748 L101.530967,57.5570912 Z M105.479234,57.5570912 L102.125402,56.0777574 L102.125402,55.5947786 L105.479234,53.9195513 L105.479234,54.7301451 L103.169042,55.8008045 L105.479234,56.7498748 L105.479234,57.5570912 Z M109.427502,57.5570912 L106.07367,56.0777574 L106.07367,55.5947786 L109.427502,53.9195513 L109.427502,54.7301451 L107.117309,55.8008045 L109.427502,56.7498748 L109.427502,57.5570912 Z M113.375769,57.5570912 L110.021937,56.0777574 L110.021937,55.5947786 L113.375769,53.9195513 L113.375769,54.7301451 L111.065577,55.8008045 L113.375769,56.7498748 L113.375769,57.5570912 Z M117.324037,57.5570912 L113.970205,56.0777574 L113.970205,55.5947786 L117.324037,53.9195513 L117.324037,54.7301451 L115.013844,55.8008045 L117.324037,56.7498748 L117.324037,57.5570912 Z M121.272304,57.5570912 L117.918472,56.0777574 L117.918472,55.5947786 L121.272304,53.9195513 L121.272304,54.7301451 L118.962112,55.8008045 L121.272304,56.7498748 L121.272304,57.5570912 Z M125.220572,57.5570912 L121.86674,56.0777574 L121.86674,55.5947786 L125.220572,53.9195513 L125.220572,54.7301451 L122.910379,55.8008045 L125.220572,56.7498748 L125.220572,57.5570912 Z M129.168839,57.5570912 L125.815007,56.0777574 L125.815007,55.5947786 L129.168839,53.9195513 L129.168839,54.7301451 L126.858647,55.8008045 L129.168839,56.7498748 L129.168839,57.5570912 Z M133.117107,57.5570912 L129.763275,56.0777574 L129.763275,55.5947786 L133.117107,53.9195513 L133.117107,54.7301451 L130.806914,55.8008045 L133.117107,56.7498748 L133.117107,57.5570912 Z M16.5739775,67.2427184 L16.5739775,62.304851 L17.6209946,62.304851 L17.6209946,67.2427184 L16.5739775,67.2427184 Z M22.9607815,64.7265001 C22.9607815,65.5393496 22.7294268,66.1619245 22.2667105,66.5942434 C21.8039942,67.0265623 21.1358239,67.2427184 20.2621795,67.2427184 L18.8639051,67.2427184 L18.8639051,62.304851 L20.4141658,62.304851 C21.2202604,62.304851 21.8462127,62.5176297 22.2920416,62.9431936 C22.7378704,63.3687575 22.9607815,63.9631871 22.9607815,64.7265001 L22.9607815,64.7265001 Z M21.8732348,64.7535199 C21.8732348,63.6929876 21.4048963,63.1627295 20.4682054,63.1627295 L19.9109222,63.1627295 L19.9109222,66.378085 L20.3601263,66.378085 C21.3688703,66.378085 21.8732348,65.8365687 21.8732348,64.7535199 L21.8732348,64.7535199 Z M28.8612291,64.7737847 C28.8612291,65.6361708 28.7199396,66.2745071 28.4373561,66.6888127 C28.1547727,67.1031182 27.7196458,67.3102679 27.1319623,67.3102679 C26.5622921,67.3102679 26.1327942,67.0963634 25.8434558,66.6685478 C25.5541174,66.2407323 25.4094504,65.6091509 25.4094504,64.7737847 C25.4094504,63.902392 25.5501771,63.2601154 25.8316347,62.8469356 C26.1130923,62.4337558 26.5465305,62.2271691 27.1319623,62.2271691 C27.7016325,62.2271691 28.1322561,62.4433253 28.4238462,62.8756441 C28.7154363,63.307963 28.8612291,63.9406702 28.8612291,64.7737847 L28.8612291,64.7737847 Z M26.446335,64.7737847 C26.446335,65.3794815 26.4986853,65.8134826 26.6033876,66.0758011 C26.7080898,66.3381195 26.8842796,66.4692768 27.1319623,66.4692768 C27.3751417,66.4692768 27.5507686,66.3364308 27.6588483,66.0707349 C27.766928,65.8050389 27.8209671,65.3727265 27.8209671,64.7737847 C27.8209671,64.168088 27.7663651,63.732961 27.6571595,63.4683909 C27.547954,63.2038207 27.37289,63.0715376 27.1319623,63.0715376 C26.8865313,63.0715376 26.7109044,63.2038207 26.6050763,63.4683909 C26.4992482,63.732961 26.446335,64.168088 26.446335,64.7737847 L26.446335,64.7737847 Z M32.8094966,64.7737847 C32.8094966,65.6361708 32.668207,66.2745071 32.3856236,66.6888127 C32.1030402,67.1031182 31.6679133,67.3102679 31.0802298,67.3102679 C30.5105596,67.3102679 30.0810617,67.0963634 29.7917233,66.6685478 C29.5023849,66.2407323 29.3577179,65.6091509 29.3577179,64.7737847 C29.3577179,63.902392 29.4984446,63.2601154 29.7799022,62.8469356 C30.0613598,62.4337558 30.494798,62.2271691 31.0802298,62.2271691 C31.6499,62.2271691 32.0805236,62.4433253 32.3721137,62.8756441 C32.6637038,63.307963 32.8094966,63.9406702 32.8094966,64.7737847 L32.8094966,64.7737847 Z M30.3946025,64.7737847 C30.3946025,65.3794815 30.4469528,65.8134826 30.5516551,66.0758011 C30.6563573,66.3381195 30.8325471,66.4692768 31.0802298,66.4692768 C31.3234092,66.4692768 31.4990361,66.3364308 31.6071158,66.0707349 C31.7151955,65.8050389 31.7692345,65.3727265 31.7692345,64.7737847 C31.7692345,64.168088 31.7146326,63.732961 31.605427,63.4683909 C31.4962215,63.2038207 31.3211575,63.0715376 31.0802298,63.0715376 C30.8347988,63.0715376 30.6591718,63.2038207 30.5533438,63.4683909 C30.4475157,63.732961 30.3946025,64.168088 30.3946025,64.7737847 L30.3946025,64.7737847 Z M36.7577641,64.7737847 C36.7577641,65.6361708 36.6164745,66.2745071 36.3338911,66.6888127 C36.0513077,67.1031182 35.6161807,67.3102679 35.0284973,67.3102679 C34.4588271,67.3102679 34.0293292,67.0963634 33.7399908,66.6685478 C33.4506524,66.2407323 33.3059854,65.6091509 33.3059854,64.7737847 C33.3059854,63.902392 33.4467121,63.2601154 33.7281697,62.8469356 C34.0096273,62.4337558 34.4430655,62.2271691 35.0284973,62.2271691 C35.5981675,62.2271691 36.0287911,62.4433253 36.3203812,62.8756441 C36.6119713,63.307963 36.7577641,63.9406702 36.7577641,64.7737847 L36.7577641,64.7737847 Z M34.34287,64.7737847 C34.34287,65.3794815 34.3952203,65.8134826 34.4999225,66.0758011 C34.6046248,66.3381195 34.7808146,66.4692768 35.0284973,66.4692768 C35.2716766,66.4692768 35.4473036,66.3364308 35.5553833,66.0707349 C35.663463,65.8050389 35.717502,65.3727265 35.717502,64.7737847 C35.717502,64.168088 35.6629001,63.732961 35.5536945,63.4683909 C35.444489,63.2038207 35.269425,63.0715376 35.0284973,63.0715376 C34.7830662,63.0715376 34.6074393,63.2038207 34.5016113,63.4683909 C34.3957832,63.732961 34.34287,64.168088 34.34287,64.7737847 L34.34287,64.7737847 Z M40.7060316,64.7737847 C40.7060316,65.6361708 40.564742,66.2745071 40.2821586,66.6888127 C39.9995752,67.1031182 39.5644482,67.3102679 38.9767648,67.3102679 C38.4070946,67.3102679 37.9775967,67.0963634 37.6882583,66.6685478 C37.3989199,66.2407323 37.2542529,65.6091509 37.2542529,64.7737847 C37.2542529,63.902392 37.3949796,63.2601154 37.6764372,62.8469356 C37.9578948,62.4337558 38.391333,62.2271691 38.9767648,62.2271691 C39.546435,62.2271691 39.9770586,62.4433253 40.2686487,62.8756441 C40.5602388,63.307963 40.7060316,63.9406702 40.7060316,64.7737847 L40.7060316,64.7737847 Z M38.2911375,64.7737847 C38.2911375,65.3794815 38.3434878,65.8134826 38.44819,66.0758011 C38.5528923,66.3381195 38.7290821,66.4692768 38.9767648,66.4692768 C39.2199441,66.4692768 39.395571,66.3364308 39.5036508,66.0707349 C39.6117305,65.8050389 39.6657695,65.3727265 39.6657695,64.7737847 C39.6657695,64.168088 39.6111676,63.732961 39.501962,63.4683909 C39.3927565,63.2038207 39.2176925,63.0715376 38.9767648,63.0715376 C38.7313337,63.0715376 38.5557068,63.2038207 38.4498788,63.4683909 C38.3440507,63.732961 38.2911375,64.168088 38.2911375,64.7737847 L38.2911375,64.7737847 Z M44.6542991,64.7737847 C44.6542991,65.6361708 44.5130095,66.2745071 44.2304261,66.6888127 C43.9478427,67.1031182 43.5127157,67.3102679 42.9250323,67.3102679 C42.3553621,67.3102679 41.9258642,67.0963634 41.6365258,66.6685478 C41.3471874,66.2407323 41.2025204,65.6091509 41.2025204,64.7737847 C41.2025204,63.902392 41.343247,63.2601154 41.6247046,62.8469356 C41.9061622,62.4337558 42.3396005,62.2271691 42.9250323,62.2271691 C43.4947024,62.2271691 43.9253261,62.4433253 44.2169162,62.8756441 C44.5085063,63.307963 44.6542991,63.9406702 44.6542991,64.7737847 L44.6542991,64.7737847 Z M42.239405,64.7737847 C42.239405,65.3794815 42.2917553,65.8134826 42.3964575,66.0758011 C42.5011598,66.3381195 42.6773496,66.4692768 42.9250323,66.4692768 C43.1682116,66.4692768 43.3438385,66.3364308 43.4519183,66.0707349 C43.559998,65.8050389 43.614037,65.3727265 43.614037,64.7737847 C43.614037,64.168088 43.5594351,63.732961 43.4502295,63.4683909 C43.341024,63.2038207 43.16596,63.0715376 42.9250323,63.0715376 C42.6796012,63.0715376 42.5039743,63.2038207 42.3981463,63.4683909 C42.2923182,63.732961 42.239405,64.168088 42.239405,64.7737847 L42.239405,64.7737847 Z M47.758198,67.2427184 L46.7145585,67.2427184 L46.7145585,64.3853752 L46.7246909,63.9159062 L46.7415783,63.4025301 C46.5682004,63.575908 46.4477383,63.6896152 46.3801885,63.743655 L45.8127728,64.1996141 L45.3095291,63.5714038 L46.9003196,62.304851 L47.758198,62.304851 L47.758198,67.2427184 Z M52.500172,66.5570912 L49.14634,65.0777574 L49.14634,64.5947786 L52.500172,62.9195513 L52.500172,63.7301451 L50.1899795,64.8008045 L52.500172,65.7498748 L52.500172,66.5570912 Z M56.4484395,66.5570912 L53.0946075,65.0777574 L53.0946075,64.5947786 L56.4484395,62.9195513 L56.4484395,63.7301451 L54.138247,64.8008045 L56.4484395,65.7498748 L56.4484395,66.5570912 Z M60.396707,66.5570912 L57.042875,65.0777574 L57.042875,64.5947786 L60.396707,62.9195513 L60.396707,63.7301451 L58.0865145,64.8008045 L60.396707,65.7498748 L60.396707,66.5570912 Z M64.3449745,66.5570912 L60.9911425,65.0777574 L60.9911425,64.5947786 L64.3449745,62.9195513 L64.3449745,63.7301451 L62.034782,64.8008045 L64.3449745,65.7498748 L64.3449745,66.5570912 Z M68.293242,66.5570912 L64.93941,65.0777574 L64.93941,64.5947786 L68.293242,62.9195513 L68.293242,63.7301451 L65.9830495,64.8008045 L68.293242,65.7498748 L68.293242,66.5570912 Z M72.2415095,66.5570912 L68.8876774,65.0777574 L68.8876774,64.5947786 L72.2415095,62.9195513 L72.2415095,63.7301451 L69.931317,64.8008045 L72.2415095,65.7498748 L72.2415095,66.5570912 Z M76.1897769,66.5570912 L72.8359449,65.0777574 L72.8359449,64.5947786 L76.1897769,62.9195513 L76.1897769,63.7301451 L73.8795845,64.8008045 L76.1897769,65.7498748 L76.1897769,66.5570912 Z M80.1380444,66.5570912 L76.7842124,65.0777574 L76.7842124,64.5947786 L80.1380444,62.9195513 L80.1380444,63.7301451 L77.827852,64.8008045 L80.1380444,65.7498748 L80.1380444,66.5570912 Z M84.0863119,66.5570912 L80.7324799,65.0777574 L80.7324799,64.5947786 L84.0863119,62.9195513 L84.0863119,63.7301451 L81.7761195,64.8008045 L84.0863119,65.7498748 L84.0863119,66.5570912 Z M88.0345794,66.5570912 L84.6807474,65.0777574 L84.6807474,64.5947786 L88.0345794,62.9195513 L88.0345794,63.7301451 L85.724387,64.8008045 L88.0345794,65.7498748 L88.0345794,66.5570912 Z M91.9828469,66.5570912 L88.6290149,65.0777574 L88.6290149,64.5947786 L91.9828469,62.9195513 L91.9828469,63.7301451 L89.6726545,64.8008045 L91.9828469,65.7498748 L91.9828469,66.5570912 Z M95.9311144,66.5570912 L92.5772824,65.0777574 L92.5772824,64.5947786 L95.9311144,62.9195513 L95.9311144,63.7301451 L93.620922,64.8008045 L95.9311144,65.7498748 L95.9311144,66.5570912 Z M99.8793819,66.5570912 L96.5255499,65.0777574 L96.5255499,64.5947786 L99.8793819,62.9195513 L99.8793819,63.7301451 L97.5691895,64.8008045 L99.8793819,65.7498748 L99.8793819,66.5570912 Z M103.827649,66.5570912 L100.473817,65.0777574 L100.473817,64.5947786 L103.827649,62.9195513 L103.827649,63.7301451 L101.517457,64.8008045 L103.827649,65.7498748 L103.827649,66.5570912 Z M107.775917,66.5570912 L104.422085,65.0777574 L104.422085,64.5947786 L107.775917,62.9195513 L107.775917,63.7301451 L105.465724,64.8008045 L107.775917,65.7498748 L107.775917,66.5570912 Z M111.724184,66.5570912 L108.370352,65.0777574 L108.370352,64.5947786 L111.724184,62.9195513 L111.724184,63.7301451 L109.413992,64.8008045 L111.724184,65.7498748 L111.724184,66.5570912 Z M115.672452,66.5570912 L112.31862,65.0777574 L112.31862,64.5947786 L115.672452,62.9195513 L115.672452,63.7301451 L113.362259,64.8008045 L115.672452,65.7498748 L115.672452,66.5570912 Z M119.620719,66.5570912 L116.266887,65.0777574 L116.266887,64.5947786 L119.620719,62.9195513 L119.620719,63.7301451 L117.310527,64.8008045 L119.620719,65.7498748 L119.620719,66.5570912 Z M123.568987,66.5570912 L120.215155,65.0777574 L120.215155,64.5947786 L123.568987,62.9195513 L123.568987,63.7301451 L121.258794,64.8008045 L123.568987,65.7498748 L123.568987,66.5570912 Z M127.517254,66.5570912 L124.163422,65.0777574 L124.163422,64.5947786 L127.517254,62.9195513 L127.517254,63.7301451 L125.207062,64.8008045 L127.517254,65.7498748 L127.517254,66.5570912 Z M131.465522,66.5570912 L128.11169,65.0777574 L128.11169,64.5947786 L131.465522,62.9195513 L131.465522,63.7301451 L129.155329,64.8008045 L131.465522,65.7498748 L131.465522,66.5570912 Z M135.464451,64.7737847 C135.464451,65.6361708 135.323162,66.2745071 135.040578,66.6888127 C134.757995,67.1031182 134.322868,67.3102679 133.735185,67.3102679 C133.165514,67.3102679 132.736017,67.0963634 132.446678,66.6685478 C132.15734,66.2407323 132.012673,65.6091509 132.012673,64.7737847 C132.012673,63.902392 132.153399,63.2601154 132.434857,62.8469356 C132.716315,62.4337558 133.149753,62.2271691 133.735185,62.2271691 C134.304855,62.2271691 134.735478,62.4433253 135.027069,62.8756441 C135.318659,63.307963 135.464451,63.9406702 135.464451,64.7737847 L135.464451,64.7737847 Z M133.049557,64.7737847 C133.049557,65.3794815 133.101908,65.8134826 133.20661,66.0758011 C133.311312,66.3381195 133.487502,66.4692768 133.735185,66.4692768 C133.978364,66.4692768 134.153991,66.3364308 134.262071,66.0707349 C134.37015,65.8050389 134.424189,65.3727265 134.424189,64.7737847 C134.424189,64.168088 134.369587,63.732961 134.260382,63.4683909 C134.151176,63.2038207 133.976112,63.0715376 133.735185,63.0715376 C133.489754,63.0715376 133.314127,63.2038207 133.208299,63.4683909 C133.102471,63.732961 133.049557,64.168088 133.049557,64.7737847 L133.049557,64.7737847 Z M18.6713891,72.1053124 C18.2773484,72.1053124 17.972253,72.2533569 17.7560935,72.5494503 C17.5399341,72.8455437 17.431856,73.2581543 17.431856,73.7872946 C17.431856,74.8883567 17.8450296,75.4388796 18.6713891,75.4388796 C19.0181449,75.4388796 19.4380733,75.3521919 19.931187,75.178814 L19.931187,76.0569574 C19.5258881,76.2258319 19.073311,76.3102679 18.5734423,76.3102679 C17.8551625,76.3102679 17.3057655,76.092423 16.9252349,75.6567267 C16.5447042,75.2210303 16.3544417,74.5956409 16.3544417,73.7805397 C16.3544417,73.267161 16.4478842,72.8173985 16.6347721,72.4312387 C16.8216599,72.0450788 17.0901664,71.7489899 17.4402997,71.5429629 C17.790433,71.336936 18.200792,71.233924 18.6713891,71.233924 C19.1509928,71.233924 19.632841,71.3498828 20.1169481,71.5818039 L19.7792007,72.4329274 C19.5945645,72.3451126 19.4088053,72.2685573 19.2219174,72.2032591 C19.0350296,72.137961 18.851522,72.1053124 18.6713891,72.1053124 L18.6713891,72.1053124 Z M23.8254149,76.2427184 L20.9815815,76.2427184 L20.9815815,71.304851 L23.8254149,71.304851 L23.8254149,72.1627295 L22.0285986,72.1627295 L22.0285986,73.2468987 L23.7004484,73.2468987 L23.7004484,74.1047772 L22.0285986,74.1047772 L22.0285986,75.378085 L23.8254149,75.378085 L23.8254149,76.2427184 Z M28.8477193,76.2427184 L27.6520933,76.2427184 L26.5037521,74.3749751 L25.3554108,76.2427184 L24.2340893,76.2427184 L25.8721644,73.6961028 L24.338791,71.304851 L25.4938872,71.304851 L26.5577917,73.0814025 L27.6014312,71.304851 L28.7295076,71.304851 L27.1792469,73.7535199 L28.8477193,76.2427184 Z M29.2428837,75.7597396 C29.2428837,75.5706001 29.2935454,75.4276218 29.3948701,75.3308004 C29.4961948,75.233979 29.6436764,75.185569 29.8373192,75.185569 C30.0242071,75.185569 30.1688741,75.2351048 30.2713247,75.3341779 C30.3737752,75.4332509 30.4249998,75.5751034 30.4249998,75.7597396 C30.4249998,75.9376208 30.3732123,76.0777846 30.2696359,76.1802352 C30.1660595,76.2826857 30.0219554,76.3339103 29.8373192,76.3339103 C29.6481797,76.3339103 29.501824,76.2838116 29.3982476,76.1836126 C29.2946712,76.0834137 29.2428837,75.9421241 29.2428837,75.7597396 L29.2428837,75.7597396 Z M31.4416195,76.2427184 L31.4416195,71.304851 L32.4886366,71.304851 L32.4886366,76.2427184 L31.4416195,76.2427184 Z M38.2134556,73.7670298 C38.2134556,74.5843826 38.0108091,75.2125866 37.6055102,75.6516604 C37.2002112,76.0907343 36.6192915,76.3102679 35.8627334,76.3102679 C35.1061754,76.3102679 34.5252556,76.0907343 34.1199567,75.6516604 C33.7146577,75.2125866 33.5120113,74.582131 33.5120113,73.7602748 C33.5120113,72.9384186 33.7152206,72.3107776 34.1216454,71.8773329 C34.5280702,71.4438882 35.1106787,71.2271691 35.8694884,71.2271691 C36.6282981,71.2271691 37.2086549,71.4455769 37.6105764,71.8823991 C38.0124979,72.3192213 38.2134556,72.9474252 38.2134556,73.7670298 L38.2134556,73.7670298 Z M34.6096905,73.7670298 C34.6096905,74.3186867 34.7143911,74.7341118 34.9237956,75.0133178 C35.1332,75.2925237 35.4461762,75.4321246 35.8627334,75.4321246 C36.6980996,75.4321246 37.1157764,74.8770985 37.1157764,73.7670298 C37.1157764,72.6547093 36.7003512,72.0985574 35.8694884,72.0985574 C35.4529311,72.0985574 35.1388292,72.2387212 34.927173,72.519053 C34.7155169,72.7993848 34.6096905,73.2153729 34.6096905,73.7670298 L34.6096905,73.7670298 Z M38.9125928,74.7498748 L41.2227852,73.8008045 L38.9125928,72.7301451 L38.9125928,71.9195513 L42.2664248,73.5947786 L42.2664248,74.0777574 L38.9125928,75.5570912 L38.9125928,74.7498748 Z M43.1850978,76.2427184 L43.1850978,71.304851 L44.2321148,71.304851 L44.2321148,76.2427184 L43.1850978,76.2427184 Z M49.5719017,73.7265001 C49.5719017,74.5393496 49.3405471,75.1619245 48.8778308,75.5942434 C48.4151145,76.0265623 47.7469442,76.2427184 46.8732998,76.2427184 L45.4750254,76.2427184 L45.4750254,71.304851 L47.0252861,71.304851 C47.8313807,71.304851 48.457333,71.5176297 48.9031618,71.9431936 C49.3489907,72.3687575 49.5719017,72.9631871 49.5719017,73.7265001 L49.5719017,73.7265001 Z M48.484355,73.7535199 C48.484355,72.6929876 48.0160166,72.1627295 47.0793257,72.1627295 L46.5220424,72.1627295 L46.5220424,75.378085 L46.9712465,75.378085 C47.9799906,75.378085 48.484355,74.8365687 48.484355,73.7535199 L48.484355,73.7535199 Z M50.2710389,74.7498748 L52.5812314,73.8008045 L50.2710389,72.7301451 L50.2710389,71.9195513 L53.6248709,73.5947786 L53.6248709,74.0777574 L50.2710389,75.5570912 L50.2710389,74.7498748 Z M57.3873773,76.2427184 L54.543544,76.2427184 L54.543544,71.304851 L57.3873773,71.304851 L57.3873773,72.1627295 L55.590561,72.1627295 L55.590561,73.2468987 L57.2624108,73.2468987 L57.2624108,74.1047772 L55.590561,74.1047772 L55.590561,75.378085 L57.3873773,75.378085 L57.3873773,76.2427184 Z M62.4096817,76.2427184 L61.2140558,76.2427184 L60.0657145,74.3749751 L58.9173732,76.2427184 L57.7960517,76.2427184 L59.4341268,73.6961028 L57.9007534,71.304851 L59.0558497,71.304851 L60.1197541,73.0814025 L61.1633936,71.304851 L62.2914701,71.304851 L60.7412094,73.7535199 L62.4096817,76.2427184 Z M66.0539765,76.2427184 L65.6959642,75.0673574 L63.8957704,75.0673574 L63.5377581,76.2427184 L62.4096817,76.2427184 L64.1524584,71.2845861 L65.4325212,71.2845861 L67.1820529,76.2427184 L66.0539765,76.2427184 Z M65.4460311,74.1892141 C65.115037,73.1241785 64.9287148,72.5218683 64.8870591,72.3822653 C64.8454034,72.2426623 64.8155693,72.1323326 64.797556,72.0512728 C64.7232512,72.3394854 64.5104725,73.0521253 64.1592134,74.1892141 L65.4460311,74.1892141 Z M69.8941648,76.2427184 L68.7052938,72.3687554 L68.6748966,72.3687554 C68.7176781,73.1568367 68.7390686,73.6825916 68.7390686,73.9460359 L68.7390686,76.2427184 L67.8035082,76.2427184 L67.8035082,71.304851 L69.2288024,71.304851 L70.3974085,75.0808673 L70.4176733,75.0808673 L71.6572064,71.304851 L73.0825006,71.304851 L73.0825006,76.2427184 L72.1064105,76.2427184 L72.1064105,73.9055062 C72.1064105,73.7951748 72.1080992,73.6679579 72.1114767,73.5238516 C72.1148542,73.3797453 72.1300527,72.9969687 72.1570726,72.3755103 L72.1266753,72.3755103 L70.8533675,76.2427184 L69.8941648,76.2427184 Z M75.3724282,73.6285533 L75.7169305,73.6285533 C76.038918,73.6285533 76.2798421,73.5649449 76.43971,73.437726 C76.599578,73.3105072 76.6795107,73.1253109 76.6795107,72.8821315 C76.6795107,72.6367005 76.6125248,72.4554445 76.478551,72.3383581 C76.3445772,72.2212718 76.134613,72.1627295 75.848652,72.1627295 L75.3724282,72.1627295 L75.3724282,73.6285533 Z M77.7366602,72.8449793 C77.7366602,73.3763712 77.5706027,73.7827899 77.2384827,74.0642475 C76.9063628,74.3457051 76.434084,74.4864318 75.8216322,74.4864318 L75.3724282,74.4864318 L75.3724282,76.2427184 L74.3254111,76.2427184 L74.3254111,71.304851 L75.9026916,71.304851 C76.5016334,71.304851 76.957025,71.4337566 77.26888,71.6915718 C77.580735,71.9493869 77.7366602,72.3338523 77.7366602,72.8449793 L77.7366602,72.8449793 Z M78.6688431,76.2427184 L78.6688431,71.304851 L79.7158602,71.304851 L79.7158602,75.378085 L81.7187024,75.378085 L81.7187024,76.2427184 L78.6688431,76.2427184 Z M85.4204143,76.2427184 L82.5765809,76.2427184 L82.5765809,71.304851 L85.4204143,71.304851 L85.4204143,72.1627295 L83.623598,72.1627295 L83.623598,73.2468987 L85.2954477,73.2468987 L85.2954477,74.1047772 L83.623598,74.1047772 L83.623598,75.378085 L85.4204143,75.378085 L85.4204143,76.2427184 Z M91.2769548,75.5570912 L87.9231228,74.0777574 L87.9231228,73.5947786 L91.2769548,71.9195513 L91.2769548,72.7301451 L88.9667623,73.8008045 L91.2769548,74.7498748 L91.2769548,75.5570912 Z M95.2252223,75.5570912 L91.8713903,74.0777574 L91.8713903,73.5947786 L95.2252223,71.9195513 L95.2252223,72.7301451 L92.9150298,73.8008045 L95.2252223,74.7498748 L95.2252223,75.5570912 Z M99.1734898,75.5570912 L95.8196578,74.0777574 L95.8196578,73.5947786 L99.1734898,71.9195513 L99.1734898,72.7301451 L96.8632973,73.8008045 L99.1734898,74.7498748 L99.1734898,75.5570912 Z M103.121757,75.5570912 L99.7679253,74.0777574 L99.7679253,73.5947786 L103.121757,71.9195513 L103.121757,72.7301451 L100.811565,73.8008045 L103.121757,74.7498748 L103.121757,75.5570912 Z M107.070025,75.5570912 L103.716193,74.0777574 L103.716193,73.5947786 L107.070025,71.9195513 L107.070025,72.7301451 L104.759832,73.8008045 L107.070025,74.7498748 L107.070025,75.5570912 Z M111.018292,75.5570912 L107.66446,74.0777574 L107.66446,73.5947786 L111.018292,71.9195513 L111.018292,72.7301451 L108.7081,73.8008045 L111.018292,74.7498748 L111.018292,75.5570912 Z M114.96656,75.5570912 L111.612728,74.0777574 L111.612728,73.5947786 L114.96656,71.9195513 L114.96656,72.7301451 L112.656367,73.8008045 L114.96656,74.7498748 L114.96656,75.5570912 Z M118.914827,75.5570912 L115.560995,74.0777574 L115.560995,73.5947786 L118.914827,71.9195513 L118.914827,72.7301451 L116.604635,73.8008045 L118.914827,74.7498748 L118.914827,75.5570912 Z M122.863095,75.5570912 L119.509263,74.0777574 L119.509263,73.5947786 L122.863095,71.9195513 L122.863095,72.7301451 L120.552902,73.8008045 L122.863095,74.7498748 L122.863095,75.5570912 Z M126.811362,75.5570912 L123.45753,74.0777574 L123.45753,73.5947786 L126.811362,71.9195513 L126.811362,72.7301451 L124.50117,73.8008045 L126.811362,74.7498748 L126.811362,75.5570912 Z M130.75963,75.5570912 L127.405798,74.0777574 L127.405798,73.5947786 L130.75963,71.9195513 L130.75963,72.7301451 L128.449437,73.8008045 L130.75963,74.7498748 L130.75963,75.5570912 Z M134.707897,75.5570912 L131.354065,74.0777574 L131.354065,73.5947786 L134.707897,71.9195513 L134.707897,72.7301451 L132.397705,73.8008045 L134.707897,74.7498748 L134.707897,75.5570912 Z" id="ID&gt;BACK-SIDE&lt;&lt;&lt;&lt;&lt;&lt;&lt;&lt;" fill="#8FC3DC"></path>
                    <path d="M143.746278,94.9767202 L10.4476023,94.9767202 C4.67619083,94.9767202 0,90.4187036 0,84.7931443 L0,10.8420508 C0,5.21928604 4.67619083,0.658474896 10.4476023,0.658474896 L143.746278,0.658474896 C149.514823,0.658474896 154.19388,5.21928604 154.19388,10.8420508 L154.19388,84.7931443 C154.19388,90.4187036 149.514823,94.9767202 143.746278,94.9767202 L143.746278,94.9767202 Z" id="Stroke-75" stroke="#8FC3DC" stroke-width="2"></path>
                    <path d="M15.9525223,18.723301 L57.8785237,18.723301" id="Stroke-161" stroke="#8FC3DC" stroke-width="3"></path>
                    <path d="M15.9525223,25.6213592 L57.8785237,25.6213592" id="Stroke-163" stroke="#8FC3DC" stroke-width="3"></path>
                    <path d="M15.9525223,32.5194175 L51.4802914,32.5194175" id="Stroke-165" stroke="#8FC3DC" stroke-width="3"></path>
                    <g id="Group-3" transform="translate(84.747774, 16.752427)" stroke="#8FC3DC">
                        <path d="M1.38192447,0.0863294905 L1.38192447,17.5720198" id="Stroke-167" stroke-width="2"></path>
                        <path d="M7.47774481,0.0822444513 L7.47774481,17.5676494" id="Stroke-169" stroke-width="5"></path>
                        <path d="M14.4518557,0.0822444513 L14.4518557,17.5676494" id="Stroke-171" stroke-width="2"></path>
                        <path d="M16.9495549,0.0822444513 L16.9495549,17.5676494" id="Stroke-173"></path>
                        <path d="M24.2543042,0.0822444513 L24.2543042,17.5676494" id="Stroke-175" stroke-width="2"></path>
                        <path d="M19.9406528,0 L19.9406528,17.485405" id="Stroke-175-Copy" stroke-width="4"></path>
                        <path d="M25.9228487,0.0822444513 L25.9228487,17.5676494" id="Stroke-177"></path>
                        <path d="M28.8873328,0 L28.8873328,17.485405" id="Stroke-177-Copy"></path>
                        <path d="M31.8784308,0.0822444513 L31.8784308,17.5676494" id="Stroke-179" stroke-width="2"></path>
                        <path d="M31.8784308,0.0822444513 L31.8784308,17.5676494" id="Stroke-181" stroke-width="2"></path>
                        <path d="M34.0567526,0.0822444513 L34.0567526,17.5676494" id="Stroke-183" stroke-width="2"></path>
                        <path d="M35.8931751,0.0822444513 L35.8931751,17.5676494" id="Stroke-185"></path>
                        <path d="M39.5025573,0.0822444513 L39.5025573,17.5676494" id="Stroke-187" stroke-width="2"></path>
                        <path d="M44.948362,0.0822444513 L44.948362,17.5676494" id="Stroke-189" stroke-width="2"></path>
                        <path d="M45.8635015,0.0822444513 L45.8635015,17.5676494" id="Stroke-191"></path>
                        <path d="M50.3941667,0.0822444513 L50.3941667,17.5676494" id="Stroke-193" stroke-width="2"></path>
                        <path d="M52.5724886,0.0822444513 L52.5724886,17.5676494" id="Stroke-195" stroke-width="2"></path>
                        <path d="M55.8338279,0.0822444513 L55.8338279,17.5676494" id="Stroke-197"></path>
                    </g>
                </g>
                <path d="M170.994065,9.40533981 L170.994065,188.974012" id="Line" stroke="#E2E2E2" stroke-linecap="square"></path>
            </g>
        </g>
    </g>
</svg>